<?xml version="1.0" encoding="UTF-8" standalone="no" ?>
<!DOCTYPE svg PUBLIC "-//W3C//DTD SVG 1.1//EN" "http://www.w3.org/Graphics/SVG/1.1/DTD/svg11.dtd">
<svg xmlns="http://www.w3.org/2000/svg" xmlns:xlink="http://www.w3.org/1999/xlink" version="1.1" width="1280" height="1024" viewBox="0 0 1280 1024" xml:space="preserve">
<desc>Created with Fabric.js 5.3.0</desc>
<defs>
</defs>
<g transform="matrix(1 0 0 1 640 512)" id="background-logo"  >
<rect style="stroke: none; stroke-width: 0; stroke-dasharray: none; stroke-linecap: butt; stroke-dashoffset: 0; stroke-linejoin: miter; stroke-miterlimit: 4; fill: rgb(255,255,255); fill-opacity: 0; fill-rule: nonzero; opacity: 1;"  paint-order="stroke"  x="-640" y="-512" rx="0" ry="0" width="1280" height="1024" />
</g>
<g transform="matrix(2.616276467685803 0 0 2.616276467685803 640.8595652864557 512.8992375304459)" id="logo-logo"  >
<g style=""  paint-order="stroke"   >
		<g transform="matrix(1.5810133449604729 0 0 -1.5810133449604729 -0.8439726595648835 -8.281894344416315)"  >
<path style="stroke: none; stroke-width: 1; stroke-dasharray: none; stroke-linecap: butt; stroke-dashoffset: 0; stroke-linejoin: miter; stroke-miterlimit: 4; fill: rgb(255,255,255); fill-rule: nonzero; opacity: 1;"  paint-order="stroke"  transform=" translate(49.701, 0)" d="M 0 0 C 0 -27.45 -22.253 -49.701 -49.702 -49.701 C -77.15 -49.701 -99.402 -27.45 -99.402 0 C -99.402 27.45 -77.15 49.701 -49.702 49.701 C -22.253 49.701 0 27.45 0 0" stroke-linecap="round" />
</g>
		<g transform="matrix(1.5810133449604729 0 0 -1.5810133449604729 0 0)"  >
<path style="stroke: none; stroke-width: 1; stroke-dasharray: none; stroke-linecap: butt; stroke-dashoffset: 0; stroke-linejoin: miter; stroke-miterlimit: 4; fill: rgb(12,60,5); fill-rule: evenodd; opacity: 1;"  paint-order="stroke"  transform=" translate(52.63108245680528, 18.430245628653353)" d="M 0 0 C -0.074 0.474 -0.429 0.725 -0.91 0.816 C -1.3940000000000001 0.9079999999999999 -1.861 1.077 -2.344 1.164 C -4.548 1.557 -6.75 1.972 -8.963 2.307 C -11.501999999999999 2.69 -14.053999999999998 2.997 -16.599999999999998 3.343 C -17.086999999999996 3.408 -17.570999999999998 3.496 -18.057 3.576 C -19.269 3.779 -20.476999999999997 4.003 -21.692 4.18 C -23.584 4.457 -25.48 4.701 -27.374000000000002 4.96 C -27.643 4.998 -27.908 5.059 -28.229000000000003 5.117 C -28.249000000000002 5.402 -28.285000000000004 5.67 -28.285000000000004 5.938 C -28.291000000000004 8.396 -28.283000000000005 10.854 -28.290000000000003 13.312999999999999 C -28.294000000000004 14.95 -28.387000000000004 16.593 -28.315 18.226 C -28.145 22.160999999999998 -28.268 26.09 -28.393 30.019 C -28.474 32.611 -28.679000000000002 35.199 -28.812 37.788 C -28.884 39.178999999999995 -28.943 40.56999999999999 -28.962 41.961 C -28.976 42.931999999999995 -29.436 43.507 -30.353 43.717 C -32.692 44.251999999999995 -35.017 44.896 -37.383 45.266 C -40.888000000000005 45.812999999999995 -44.396 46.372 -47.97 46.367999999999995 C -50.646 46.364999999999995 -53.321 46.367999999999995 -55.977999999999994 46.035999999999994 C -58.276999999999994 45.748999999999995 -60.565 45.37 -62.858999999999995 45.02499999999999 C -67.24499999999999 44.36699999999999 -71.509 43.22699999999999 -75.66199999999999 41.67399999999999 C -76.60699999999999 41.31999999999999 -77.547 40.940999999999995 -78.46199999999999 40.516999999999996 C -81.81199999999998 38.958999999999996 -85.02099999999999 37.145999999999994 -88.118 35.132999999999996 C -88.70899999999999 34.74699999999999 -89.288 34.32299999999999 -89.798 33.839 C -91.014 32.683 -90.993 32.391 -90.188 30.866 C -88.59100000000001 27.849 -87.041 24.81 -85.84400000000001 21.599 C -83.938 16.493000000000002 -82.51200000000001 11.26 -81.42800000000001 5.928000000000001 C -81.14600000000002 4.536000000000001 -80.879 3.141000000000001 -80.632 1.7440000000000007 C -80.372 0.2660000000000007 -80.143 -1.2179999999999995 -79.90700000000001 -2.698999999999999 C -79.873 -2.903999999999999 -79.87100000000001 -3.1159999999999988 -79.855 -3.3339999999999987 C -80.156 -3.4509999999999987 -80.406 -3.5569999999999986 -80.66300000000001 -3.6459999999999986 C -83.18800000000002 -4.522999999999999 -85.71300000000001 -5.405999999999999 -88.24300000000001 -6.269999999999999 C -89.01700000000001 -6.533999999999999 -89.81 -6.746999999999999 -90.596 -6.969999999999999 C -91.69800000000001 -7.283999999999999 -92.813 -7.556999999999999 -93.906 -7.8969999999999985 C -96.355 -8.661999999999999 -98.804 -9.428999999999998 -101.233 -10.253999999999998 C -102.26100000000001 -10.603999999999997 -103.24300000000001 -11.092999999999998 -104.241 -11.531999999999998 C -104.843 -11.795999999999998 -105.14 -12.296999999999999 -105.26 -12.924999999999999 C -105.38600000000001 -13.581999999999999 -105.117 -14.075 -104.458 -14.209999999999999 C -103.442 -14.417 -102.419 -14.6 -101.393 -14.736999999999998 C -100.20100000000001 -14.895999999999999 -99 -14.980999999999998 -97.808 -15.127999999999998 C -96.83300000000001 -15.247999999999998 -95.86800000000001 -15.459999999999999 -94.893 -15.546999999999999 C -93.532 -15.668999999999999 -92.167 -15.719 -90.804 -15.79 C -89.113 -15.876 -87.422 -15.973999999999998 -85.73 -16.024 C -84.53500000000001 -16.058 -83.337 -16.022000000000002 -81.921 -16.018 C -82.41000000000001 -16.696 -82.762 -17.283 -83.20800000000001 -17.789 C -84.543 -19.305 -85.91700000000002 -20.788 -87.27100000000002 -22.288 C -87.60000000000001 -22.651 -87.92100000000002 -23.025 -88.22500000000001 -23.411 C -89.86200000000001 -25.499000000000002 -90.96400000000001 -27.864 -91.846 -30.352 C -92.804 -33.052 -93.36 -35.837 -93.438 -38.691 C -93.54 -42.524 -92.928 -46.262 -91.486 -49.831 C -90.852 -51.399 -90.146 -52.940000000000005 -89.388 -54.453 C -88.14800000000001 -56.925000000000004 -86.38300000000001 -58.986000000000004 -84.32300000000001 -60.829 C -82.581 -62.386 -80.61500000000001 -63.615 -78.683 -64.895 C -77.84200000000001 -65.452 -76.986 -65.99499999999999 -76.09800000000001 -66.469 C -74.55900000000001 -67.294 -72.99300000000001 -68.065 -71.43700000000001 -68.85499999999999 C -68.37300000000002 -70.41099999999999 -65.299 -71.94899999999998 -62.24900000000001 -73.53299999999999 C -61.21000000000001 -74.07199999999999 -60.23300000000001 -74.73199999999999 -59.22300000000001 -75.32999999999998 C -56.253000000000014 -77.08099999999999 -53.750000000000014 -79.29199999999999 -52.16500000000001 -82.42199999999998 C -51.87900000000001 -82.98899999999998 -51.32500000000001 -83.21099999999998 -50.73600000000001 -83.22799999999998 C -50.16900000000001 -83.24499999999998 -49.91100000000001 -82.83699999999997 -49.72500000000001 -82.32499999999997 C -49.35600000000001 -81.31299999999997 -48.77900000000001 -80.42599999999997 -47.98800000000001 -79.67599999999997 C -45.849000000000004 -77.63999999999997 -43.666000000000004 -75.65999999999997 -41.20700000000001 -74.00099999999998 C -39.034000000000006 -72.53299999999997 -36.91000000000001 -70.99199999999998 -34.74100000000001 -69.51799999999997 C -32.434000000000005 -67.95499999999997 -30.107000000000006 -66.41999999999997 -27.773000000000007 -64.90099999999997 C -26.40500000000001 -64.00899999999997 -25.336000000000006 -62.797999999999966 -24.160000000000007 -61.69899999999997 C -22.172000000000008 -59.84099999999997 -20.483000000000008 -57.76399999999997 -19.026000000000007 -55.45499999999997 C -16.836000000000006 -51.97799999999997 -15.424000000000007 -48.24599999999997 -14.685000000000006 -44.22099999999997 C -13.961000000000006 -40.28499999999997 -14.543000000000006 -36.47999999999997 -15.845000000000006 -32.77899999999997 C -16.815000000000005 -30.022999999999968 -18.057000000000006 -27.36999999999997 -19.605000000000004 -24.87299999999997 C -20.700000000000003 -23.10699999999997 -21.732000000000003 -21.301999999999968 -22.480000000000004 -19.35299999999997 C -23.385000000000005 -16.99599999999997 -23.938000000000002 -14.54799999999997 -24.379000000000005 -12.07199999999997 C -24.548000000000005 -11.11499999999997 -24.642000000000007 -10.141999999999971 -24.768000000000004 -9.185999999999972 C -24.580000000000005 -9.10399999999997 -24.484000000000005 -9.047999999999972 -24.383000000000003 -9.020999999999972 C -21.447000000000003 -8.278999999999971 -18.514000000000003 -7.519999999999973 -15.570000000000002 -6.808999999999973 C -10.860000000000003 -5.671999999999972 -6.247000000000002 -4.266999999999973 -1.8910000000000018 -2.1109999999999722 C -1.4010000000000018 -1.8679999999999723 -0.9150000000000018 -1.6139999999999723 -0.45500000000000185 -1.3189999999999722 C 0.02 -1.014 0.076 -0.493 0 0" stroke-linecap="round" />
</g>
		<g transform="matrix(1.5810133449604729 0 0 -1.5810133449604729 -7.286584940066916 -70.99482404124385)"  >
<path style="stroke: none; stroke-width: 1; stroke-dasharray: none; stroke-linecap: butt; stroke-dashoffset: 0; stroke-linejoin: miter; stroke-miterlimit: 4; fill: rgb(128,195,65); fill-rule: evenodd; opacity: 1;"  paint-order="stroke"  transform=" translate(-12.082810815982025, -2.7487873825365554)" d="M 0 0 C 0.184 -0.203 0.367 -0.407 0.551 -0.61 C 0.515 -0.644 0.477 -0.678 0.441 -0.711 C 0.256 -0.509 0.072 -0.308 -0.113 -0.106 C -0.075 -0.07 -0.038 -0.035 0 0 M 1.659 -0.797 C 0.9690000000000001 -0.558 0.783 -0.34700000000000003 0.591 0.4169999999999999 C 0.962 -0.004000000000000059 1.301 -0.3900000000000001 1.659 -0.797 M 2.764 -1.11 C 2.015 -0.858 1.576 -0.309 1.39 0.472 C 1.848 -0.055 2.307 -0.582 2.764 -1.11 M 3.7569999999999997 -1.2040000000000002 C 2.9639999999999995 -0.8100000000000002 2.428 -0.20600000000000018 2.2889999999999997 0.7059999999999997 C 2.7779999999999996 0.06799999999999973 3.2689999999999997 -0.5660000000000003 3.7569999999999997 -1.2040000000000002 M 4.667 -0.9140000000000001 C 3.8049999999999997 -0.5910000000000002 3.4819999999999998 -0.2480000000000001 3.131 0.7029999999999998 C 3.643 0.1629999999999998 4.154999999999999 -0.3770000000000002 4.667 -0.9140000000000001 M 5.499 -0.6430000000000001 C 4.875 -0.5330000000000001 4.524 -0.12200000000000011 4.3709999999999996 0.4919999999999999 C 4.747999999999999 0.11199999999999988 5.124 -0.2650000000000001 5.499 -0.6430000000000001 M 7.929 -4.251 C 6.912 -4.508 6.179 -4.238 5.521 -3.666 C 6.279 -3.849 7.037 -4.034 7.929 -4.251 M 5.945 0.346 C 6.192 0.089 6.439 -0.167 6.686 -0.422 C 6.646 -0.462 6.605 -0.502 6.565 -0.542 C 6.308 -0.282 6.051 -0.023 5.793 0.237 C 5.844 0.273 5.896 0.309 5.945 0.346 M 8.489 -3.395 C 8.477 -3.454 8.463 -3.513 8.451 -3.571 C 7.813 -3.576 7.183 -3.546 6.65 -3.057 C 7.264 -3.17 7.876 -3.283 8.489 -3.395 M 9.301 -2.476 C 8.747 -2.765 8.25 -2.645 7.616 -2.255 C 8.295 -2.343 8.798 -2.41 9.301 -2.476 M 7.829 4.486 C 7.312 5.689 7.39 6.729 8.06 7.743 C 7.986 6.703 7.912 5.663 7.829 4.486 M 9.141 7.08 C 9.092 5.951 9.042 4.801 8.995 3.712 C 8.377 4.518 8.431 6.179 9.141 7.08 M 9.808 -1.707 C 9.804 -1.736 9.799 -1.763 9.793 -1.791 C 9.466 -1.748 9.139 -1.706 8.811 -1.662 C 8.837 -1.639 8.865 -1.6119999999999999 8.89 -1.587 C 9.196 -1.626 9.501000000000001 -1.667 9.808 -1.7069999999999999 M 10.131 6.460999999999999 C 9.983 5.333 9.835 4.207 9.675 2.977 C 9.24 4.27 9.389 5.397 10.131 6.461 M 4.465 -4.609 C 5.373 -4.817 6.111 -4.986 6.833 -5.152 C 6.316 -5.489 5.373 -5.31 4.465 -4.609 M 3.811 -5.495 C 4.526 -5.66 5.241 -5.823 5.955 -5.987 C 5.159 -6.293 4.449 -6.073 3.811 -5.495 M 2.808 -5.966 C 3.451 -6.197 4.094 -6.43 4.901 -6.721 C 3.963 -6.796 3.315 -6.578 2.808 -5.966 M 2.022 -6.595 C 2.596 -6.879 3.107 -7.133 3.698 -7.427 C 2.951 -7.468 2.394 -7.296 2.022 -6.595 M 6.819 5.356 C 6.415 6.016 6.408 6.534 6.861 7.44 C 6.847 6.758 6.833 6.077 6.819 5.356 M 5.625 6.422 C 5.305 7.216 5.507 7.954 5.717 8.693 C 5.785 8.683 5.851 8.673 5.919 8.662 C 5.822 7.916 5.724 7.168 5.625 6.422 M 4.666 6.669 C 4.296 7.601 4.335 8.342 4.872 9.044 C 4.808 8.302 4.744 7.563 4.666 6.669 M 3.845 7.882 C 3.537 8.429 3.685 8.938 4.047 9.42 C 3.98 8.908 3.914 8.396 3.845 7.882 M 3.232 9.122 C 3.173 9.139 3.111 9.157 3.051 9.175 C 3.158 9.539 3.262 9.903 3.367 10.269 C 3.425 10.252 3.484 10.234 3.542 10.218 C 3.438 9.853 3.336 9.487 3.232 9.122 M 11.184 5.719 C 11.308 4.674 11.068 3.754 10.901 2.804 C 10.533 3.542 10.626 4.562 11.184 5.719 M 12.982 -6.421 C 12.834 -6.921 12.469999999999999 -7.106 11.975999999999999 -7.109 C 12.312 -6.879 12.648 -6.65 12.982 -6.421 M 12.418 5.9 C 12.641 4.965 12.53 4.071 12.103 3.075 C 12.023 4.132 12.087 5.029 12.418 5.9 M 13.130999999999998 -4.109 C 13.159999999999998 -4.142 13.186999999999998 -4.174 13.216 -4.207 C 13.042 -4.359999999999999 12.867999999999999 -4.51 12.692 -4.662 C 12.643 -4.602 12.594 -4.541 12.544 -4.479 C 12.741 -4.357 12.936 -4.2330000000000005 13.131 -4.109 M 13.193 6.415 C 13.139 6.41 13.083 6.407 13.028 6.406 C 13.013 6.975 12.999 7.545 12.98 8.263 C 13.331 7.559 13.361 7.169 13.193 6.415 M 13.408999999999999 -4.999 C 13.100999999999999 -5.266 12.791999999999998 -5.5329999999999995 12.483999999999998 -5.7989999999999995 C 12.436999999999998 -5.749999999999999 12.386999999999999 -5.699 12.337999999999997 -5.6499999999999995 C 12.657999999999998 -5.388 12.975999999999997 -5.127 13.293999999999997 -4.866999999999999 C 13.332999999999997 -4.910999999999999 13.369999999999997 -4.954999999999999 13.408999999999997 -4.998999999999999 M 13.877999999999997 -0.2799999999999985 C 13.942999999999996 -0.31899999999999845 14.006999999999996 -0.3589999999999985 14.072999999999997 -0.39899999999999847 C 13.910999999999996 -0.7289999999999985 13.750999999999998 -1.0599999999999985 13.588999999999997 -1.3909999999999985 C 13.543999999999997 -1.3709999999999984 13.497999999999998 -1.3509999999999984 13.451999999999996 -1.3319999999999985 C 13.593999999999996 -0.9809999999999985 13.735999999999997 -0.6299999999999986 13.877999999999997 -0.2799999999999985 M 13.742999999999997 8.98 C 13.781999999999996 8.756 13.822999999999997 8.534 13.862999999999996 8.31 C 13.816999999999997 8.301 13.770999999999995 8.291 13.723999999999997 8.282 C 13.675999999999997 8.491 13.627999999999997 8.703 13.579999999999997 8.914 C 13.634999999999996 8.937999999999999 13.687999999999997 8.956999999999999 13.742999999999997 8.98 M 14.329999999999997 10.602 C 14.412999999999997 10.258000000000001 14.496999999999996 9.913 14.577999999999996 9.566 C 14.515999999999996 9.542000000000002 14.454999999999997 9.518 14.392999999999995 9.492 C 14.318999999999996 9.851 14.243999999999996 10.209000000000001 14.169999999999995 10.565000000000001 C 14.222999999999995 10.577000000000002 14.275999999999994 10.589 14.329999999999995 10.602000000000002 M 14.736999999999995 10.461000000000002 C 14.589999999999995 11.084000000000001 14.481999999999994 11.547000000000002 14.353999999999996 12.086000000000002 C 14.809999999999995 11.528000000000002 14.840999999999996 11.407000000000002 14.736999999999995 10.461000000000002 M 15.409999999999995 11.427000000000001 C 15.196999999999996 11.903000000000002 15.052999999999995 12.229000000000001 14.908999999999995 12.553 C 15.291999999999994 12.33 15.493999999999996 12.027000000000001 15.409999999999995 11.427000000000001 M 14.461 -0.934 C 14.516 -0.9570000000000001 14.573 -0.9810000000000001 14.627 -1.0050000000000001 C 14.48 -1.34 14.33 -1.6750000000000003 14.181000000000001 -2.01 C 14.129000000000001 -1.9869999999999999 14.077000000000002 -1.9639999999999997 14.025 -1.9419999999999997 C 14.17 -1.6039999999999996 14.314 -1.2699999999999996 14.461 -0.9339999999999997 M 15.516 -2.484 C 15.398 -3.018 15.279 -3.551 15.162 -4.085 C 14.895000000000001 -3.464 15.120000000000001 -2.9539999999999997 15.516 -2.484 M 16.023 1.0259999999999998 C 16.207 0.823 16.391 0.623 16.575 0.42 C 16.538 0.381 16.5 0.344 16.464 0.307 C 16.262 0.5 16.062 0.694 15.863 0.89 C 15.917 0.935 15.969 0.981 16.023 1.026 M 18.001 -0.20599999999999996 C 17.266000000000002 0.11600000000000005 16.782 0.647 16.629 1.446 C 17.086000000000002 0.8969999999999999 17.543000000000003 0.34599999999999986 18.001 -0.20599999999999996 M 17.417 2.969 C 17.625 2.8779999999999997 17.834000000000003 2.786 18.045 2.695 C 18.03 2.655 18.014000000000003 2.6149999999999998 17.998 2.5759999999999996 C 17.787000000000003 2.6649999999999996 17.575000000000003 2.7509999999999994 17.362000000000002 2.8389999999999995 C 17.380000000000003 2.8819999999999997 17.397000000000002 2.9249999999999994 17.417 2.9689999999999994 M 17.616000000000003 3.7429999999999994 C 17.899 3.596 18.18 3.449 18.463 3.302 C 18.435 3.258 18.407 3.213 18.377 3.166 C 18.102999999999998 3.316 17.828 3.465 17.552 3.616 C 17.573999999999998 3.657 17.594 3.7 17.616 3.7430000000000003 M 18.035 4.067 C 18.37 3.904 18.704 3.738 19.039 3.575 C 19.016 3.528 18.996 3.48 18.973 3.433 C 18.613 3.5909999999999997 18.253 3.7489999999999997 17.894 3.9059999999999997 C 17.941 3.9599999999999995 17.988 4.013999999999999 18.034999999999997 4.066999999999999 M 18.578999999999997 4.331999999999999 C 18.849999999999998 4.2189999999999985 19.122999999999998 4.103999999999999 19.394 3.991999999999999 C 19.375999999999998 3.944999999999999 19.357999999999997 3.896999999999999 19.339 3.851999999999999 C 19.055999999999997 3.958999999999999 18.770999999999997 4.061999999999999 18.488 4.166999999999999 C 18.517 4.223999999999999 18.546 4.275999999999999 18.579 4.331999999999999 M 18.901 4.906999999999999 C 19.223 4.767 19.543 4.627 19.866 4.486 C 19.844 4.438 19.822 4.388 19.8 4.339 C 19.479 4.481 19.159 4.622 18.837 4.762 C 18.859 4.811 18.88 4.86 18.901 4.907 M 19.482 5.312 C 19.81 5.215 20.139 5.117 20.468 5.021 C 20.463 4.97 20.46 4.917 20.457 4.865 C 20.118000000000002 4.965 19.778000000000002 5.065 19.439 5.166 C 19.453 5.215000000000001 19.467 5.264 19.482 5.312 M 21.246 5.345000000000001 C 20.788 5.265000000000001 20.787 5.261000000000001 20.403 5.565 C 20.653 5.501 20.904999999999998 5.436 21.246 5.345000000000001 M 21.209 5.896 C 21.371 5.876 21.533 5.856 21.694 5.835 C 21.692 5.817 21.69 5.801 21.689 5.786 C 21.527 5.807 21.365 5.828 21.205 5.85 C 21.206999999999997 5.864999999999999 21.208 5.88 21.209 5.896 M 22.311 -1.3689999999999998 C 21.149 -0.8099999999999997 20.357 0.029000000000000137 19.974 1.213 C 20.003 1.232 20.025 1.256 20.048000000000002 1.2590000000000001 C 20.074 1.262 20.108 1.2500000000000002 20.122000000000003 1.2320000000000002 C 20.854000000000003 0.3670000000000002 21.583000000000002 -0.5009999999999999 22.311000000000003 -1.3689999999999998 M 23.419000000000004 -0.9889999999999998 C 23.367000000000004 -1.0249999999999997 23.314000000000004 -1.0619999999999998 23.260000000000005 -1.1009999999999998 C 22.619000000000007 -0.6869999999999998 22.165000000000006 -0.11899999999999977 21.965000000000003 0.6720000000000002 C 22.450000000000003 0.1190000000000001 22.934000000000005 -0.43399999999999994 23.419000000000004 -0.9889999999999999 M 22.991000000000003 0.7580000000000002 C 23.362000000000002 0.3770000000000002 23.730000000000004 -0.0029999999999997806 24.1 -0.3819999999999997 C 23.48 -0.2669999999999997 23.193 0.2080000000000003 22.860000000000003 0.6330000000000002 C 22.904000000000003 0.6750000000000003 22.948000000000004 0.7150000000000002 22.991000000000003 0.7580000000000002 M 23.375000000000004 1.6490000000000002 C 23.725 1.195 24.077 0.743 24.425 0.291 C 24.369 0.244 24.311 0.198 24.252 0.15 C 23.906 0.608 23.558 1.067 23.211 1.525 C 23.265 1.567 23.32 1.608 23.375 1.649 M 18.888 1.157 C 19.455000000000002 0.267 20.024 -0.6239999999999999 20.426000000000002 -1.2559999999999998 C 19.917 -1.1399999999999997 19.112000000000002 -0.1469999999999998 18.888 1.157 M 17.586000000000002 1.629 C 17.894000000000002 1.224 18.21 0.827 18.507 0.41500000000000004 C 18.802000000000003 0.0020000000000000573 19.076 -0.42199999999999993 19.367 -0.851 C 18.426000000000002 -0.2909999999999999 17.796 0.498 17.586000000000002 1.629 M 17.628000000000004 -7.220000000000001 C 17.329000000000004 -6.6080000000000005 17.332000000000004 -6.444000000000001 17.720000000000002 -5.674 C 17.692000000000004 -6.1610000000000005 17.663000000000004 -6.648000000000001 17.628000000000004 -7.220000000000001 M 16.851000000000003 -6.737000000000001 C 16.572000000000003 -6.162000000000001 16.704000000000004 -5.639000000000001 17.060000000000002 -5.144000000000001 C 16.991000000000003 -5.675000000000001 16.921000000000003 -6.206000000000001 16.851000000000003 -6.737000000000001 M 16.205000000000002 -5.961000000000001 C 16.146 -5.955000000000001 16.087000000000003 -5.950000000000001 16.028000000000002 -5.9460000000000015 C 16.013 -5.364000000000002 16.045 -4.792000000000002 16.434 -4.217000000000001 C 16.35 -4.856000000000002 16.277 -5.408000000000001 16.205000000000002 -5.961000000000001 M 15.563000000000002 -5.123000000000001 C 15.408000000000003 -4.475000000000001 15.508000000000003 -3.886000000000001 15.994000000000002 -3.359000000000001 C 15.851 -3.947000000000001 15.708000000000002 -4.534000000000001 15.563000000000002 -5.123000000000001 M 18.318 -6.229000000000001 C 18.386000000000003 -6.230000000000001 18.454 -6.230000000000001 18.520000000000003 -6.232000000000001 C 18.480000000000004 -6.542000000000001 18.439000000000004 -6.855000000000001 18.398000000000003 -7.167000000000002 C 18.358000000000004 -7.1640000000000015 18.318000000000005 -7.163000000000002 18.278000000000002 -7.161000000000001 C 18.291000000000004 -6.851000000000002 18.303 -6.540000000000001 18.318 -6.229000000000001 M 0.673 -1.5 C 1.13 -1.591 1.583 -1.696 2.039 -1.776 C 2.511 -1.863 2.87 -2.091 2.975 -2.572 C 3.078 -3.04 2.897 -3.415 2.515 -3.719 C 2.197 -3.971 1.866 -4.234 1.627 -4.557 C 0.822 -5.649 1.096 -7.748 3.078 -7.946 C 3.759 -8.014 4.3919999999999995 -7.859999999999999 4.973 -7.552 C 5.918 -7.055 6.797 -6.446999999999999 7.510999999999999 -5.635999999999999 C 7.834999999999999 -5.2669999999999995 8.143999999999998 -4.882999999999999 8.469999999999999 -4.513999999999999 C 8.847999999999999 -4.087 9.261 -3.9649999999999994 9.709 -4.1579999999999995 C 10.161999999999999 -4.356999999999999 10.357 -4.7299999999999995 10.341999999999999 -5.210999999999999 C 10.332999999999998 -5.536 10.291999999999998 -5.861999999999999 10.264999999999999 -6.188999999999999 C 10.251 -6.186999999999999 10.238 -6.186999999999999 10.225999999999999 -6.185999999999999 C 10.199 -6.594999999999999 10.126 -7.004999999999999 10.155999999999999 -7.411 C 10.245999999999999 -8.568999999999999 11.447 -9.275 12.405999999999999 -8.725 C 12.927 -8.421999999999999 13.354 -8.015 13.559 -7.396 C 13.979999999999999 -6.112 14.835999999999999 -5.904999999999999 15.806 -6.856 C 16.285999999999998 -7.327 16.837 -7.654 17.442999999999998 -7.913 C 18.412 -8.328 19.259999999999998 -8.019 19.830999999999996 -7.126 C 20.334999999999997 -6.337000000000001 20.171999999999997 -5.571000000000001 19.731999999999996 -4.891 C 19.323999999999995 -4.261 18.776999999999997 -3.7110000000000003 18.239999999999995 -3.177 C 17.632999999999996 -2.577 17.670999999999996 -1.737 18.388999999999996 -1.321 C 18.823999999999995 -1.0699999999999998 19.225999999999996 -1.189 19.619999999999997 -1.436 C 20.72 -2.129 21.926999999999996 -2.3449999999999998 23.214999999999996 -2.318 C 24.089999999999996 -2.298 24.582999999999995 -1.848 24.870999999999995 -1.102 C 25.343999999999994 0.12399999999999989 24.955999999999996 1.469 23.848999999999997 2.2350000000000003 C 23.366999999999997 2.5680000000000005 22.794999999999998 2.8110000000000004 22.230999999999998 2.9850000000000003 C 21.708 3.1460000000000004 21.316999999999997 3.3660000000000005 21.253999999999998 3.9360000000000004 C 21.198999999999998 4.4590000000000005 21.456999999999997 4.811 21.941999999999997 5.025 C 22.136999999999997 5.109 22.316999999999997 5.2490000000000006 22.476999999999997 5.393000000000001 C 23.071999999999996 5.932 23.291999999999998 6.8420000000000005 22.997999999999998 7.479000000000001 C 22.755999999999997 7.9990000000000006 22.003999999999998 8.357000000000001 21.226 8.233 C 19.99 8.035 18.841 7.627 18.018 6.602 C 17.523 5.987 17.007 5.384 16.545 4.743 C 16.065 4.076 15.447 4.123 14.788 4.351 C 14.25 4.538 14.098 5.107 14.361 5.8149999999999995 C 14.635000000000002 6.555 14.963000000000001 7.276 15.246 8.015 C 15.645 9.056000000000001 16.14 10.062000000000001 16.255 11.202 C 16.433999999999997 12.97 14.943999999999999 14.544 13.162999999999998 14.404 C 12.213 14.328 11.441 13.91 10.854 13.16 C 10.29 12.441 9.942 11.618 9.679 10.746 C 9.378 9.75 8.556 9.548 7.803 10.261 C 7.704 10.356 7.629 10.48 7.52 10.554 C 6.866 10.995 6.237 11.479 5.542 11.838 C 4.997 12.119 4.381 12.115 3.833 11.726 C 2.594 10.843 2.189 9.388 2.864 8.03 C 3.419 6.917 4.175 5.944 5.208 5.232 C 5.833 4.802 6.501 4.434 7.166 4.065 C 7.765 3.733 8.036 3.118 7.789 2.558 C 7.544 2 6.957 1.845 6.258 2.121 C 5.933 2.252 5.588 2.336 5.248 2.427 C 4.111 2.726 2.962 2.608 1.834 2.422 C 1.231 2.323 0.627 2.088 0.086 1.799 C -0.716 1.369 -1.011 0.71 -0.869 -0.017 C -0.7 -0.87 -0.158 -1.336 0.673 -1.5" stroke-linecap="round" />
</g>
		<g transform="matrix(1.5810133449604729 0 0 -1.5810133449604729 -9.772903626563618 -68.21923504179568)"  >
<path style="stroke: none; stroke-width: 1; stroke-dasharray: none; stroke-linecap: butt; stroke-dashoffset: 0; stroke-linejoin: miter; stroke-miterlimit: 4; fill: rgb(48,147,68); fill-rule: evenodd; opacity: 1;"  paint-order="stroke"  transform=" translate(-12.019000000000002, 2.236288563925534)" d="M 0 0 C 0.957 0.741 2.03 1.16 3.229 1.282 C 3.52 1.312 3.809 1.351 4.189 1.397 C 3.997 1.653 3.843 1.838 3.714 2.036 C 3.295 2.674 2.818 3.285 2.486 3.968 C 1.212 6.578 2.406 9.171 4.59 10.459 C 5.713 11.121 6.917 10.922 8.061 10.437 C 8.609 10.208 9.11 9.871 9.689 9.553 C 9.823 9.782 9.955 10.009 10.087 10.236 C 11.292 12.302 13.02 13.438 15.483 13.204 C 18.236 12.940000000000001 20.282 10.064 19.810000000000002 7.703 C 19.712000000000003 7.223000000000001 19.677000000000003 6.7330000000000005 19.607000000000003 6.197 C 19.787000000000003 6.2620000000000005 19.981 6.331 20.171000000000003 6.4030000000000005 C 21.194000000000003 6.801 22.231 7.1850000000000005 23.346000000000004 7.072000000000001 C 26.667 6.742 27.3 3.688 26.262 1.737 C 26.171 1.569 26.067 1.41 25.923 1.172 C 26.155 1 26.389 0.83 26.619 0.653 C 28.473 -0.7709999999999999 29.109 -2.9939999999999998 28.276 -5.122 C 27.627 -6.778 26.399 -7.611 24.614 -7.604 C 24.211000000000002 -7.601 23.809 -7.595 23.357 -7.589 C 23.432 -7.863 23.471999999999998 -8.048 23.534 -8.224 C 24.287 -10.368 22.762999999999998 -12.850999999999999 20.366 -13.374 C 19.68 -13.521 19.003999999999998 -13.413 18.365 -13.13 C 17.793999999999997 -12.876000000000001 17.232999999999997 -12.600000000000001 16.631 -12.318000000000001 C 16.297 -12.627 15.97 -12.952000000000002 15.622 -13.251000000000001 C 13.667 -14.945 10.987 -14.359000000000002 9.905999999999999 -12.002 C 9.804999999999998 -11.782 9.719 -11.554 9.591999999999999 -11.247 C 8.963999999999999 -11.658 8.412999999999998 -12.058 7.824999999999999 -12.396 C 6.635 -13.083 5.369 -13.422 3.9779999999999993 -13.180000000000001 C 1.9699999999999993 -12.831000000000001 0.4789999999999992 -10.987000000000002 0.6609999999999991 -8.948 C 0.7289999999999992 -8.205 0.9809999999999992 -7.476000000000001 1.1669999999999991 -6.665000000000001 C 0.994 -6.567 0.742 -6.417 0.484 -6.278 C -1.697 -5.119 -2.283 -1.764 0 0 M -16.583 3.089 C -16.412 2.803 -16.293999999999997 2.605 -16.165999999999997 2.39 C -11.911999999999997 4.239 -7.577999999999998 5.632 -3.0829999999999966 6.516 C -7.146999999999997 4.51 -11.214999999999996 2.529 -15.098999999999997 0.15200000000000014 C -15.010999999999997 -0.05299999999999985 -14.956999999999997 -0.20799999999999985 -14.881999999999996 -0.35099999999999987 C -14.796999999999995 -0.5119999999999999 -14.693999999999996 -0.6639999999999999 -14.589999999999996 -0.8329999999999999 C -11.052999999999997 0.4700000000000001 -7.516999999999996 1.6330000000000005 -3.843999999999996 2.3190000000000004 C -7.1249999999999964 0.5980000000000003 -10.404999999999996 -1.1219999999999994 -13.726999999999995 -2.8639999999999994 C -13.575999999999995 -3.2119999999999993 -13.472999999999995 -3.4489999999999994 -13.349999999999994 -3.7319999999999993 C -10.497999999999994 -2.8859999999999992 -7.716999999999994 -2.0119999999999996 -4.8129999999999935 -1.5809999999999995 C -7.434999999999993 -2.917 -10.056999999999993 -4.2509999999999994 -12.709999999999994 -5.603999999999999 C -12.548999999999994 -6.033999999999999 -12.407999999999994 -6.408999999999999 -12.249999999999993 -6.827999999999999 C -9.666999999999993 -6.037999999999999 -7.153999999999993 -5.268999999999999 -4.640999999999993 -4.5009999999999994 C -4.617999999999993 -4.558999999999999 -4.594999999999993 -4.617999999999999 -4.571999999999993 -4.675 C -6.920999999999993 -5.999 -9.269999999999992 -7.323 -11.663999999999993 -8.672 C -11.587999999999992 -8.905000000000001 -11.514999999999993 -9.127 -11.446999999999992 -9.338000000000001 C -8.447999999999992 -8.918000000000001 -5.6209999999999924 -7.945000000000001 -2.672999999999993 -7.572000000000001 C -4.018999999999993 -8.254000000000001 -5.364999999999993 -8.917000000000002 -6.733999999999993 -9.529000000000002 C -8.092999999999993 -10.134000000000002 -9.475999999999992 -10.688000000000002 -10.874999999999993 -11.275000000000002 C -10.727999999999993 -11.711000000000002 -10.610999999999994 -12.064000000000002 -10.491999999999994 -12.421000000000003 C -7.821999999999994 -11.994000000000003 -5.241999999999994 -11.582000000000003 -2.662999999999994 -11.168000000000003 C -2.6449999999999942 -11.232000000000003 -2.627999999999994 -11.296000000000003 -2.611999999999994 -11.360000000000003 C -5.067999999999994 -12.325000000000003 -7.5229999999999935 -13.292000000000003 -10.014999999999993 -14.272000000000002 C -9.936999999999994 -14.492000000000003 -9.867999999999993 -14.688000000000002 -9.781999999999993 -14.932000000000002 C -6.993999999999993 -14.552000000000001 -4.237999999999993 -14.207000000000003 -1.4489999999999927 -14.217000000000002 C -4.062999999999993 -15.157000000000002 -6.731999999999993 -15.916000000000002 -9.299999999999994 -16.971000000000004 C -7.488999999999994 -16.914000000000005 -5.699999999999994 -16.798000000000005 -3.912999999999994 -16.643000000000004 C -2.142999999999994 -16.488000000000003 -0.376999999999994 -16.294000000000004 1.3920000000000057 -16.116000000000003 C 0.2870000000000057 -16.668000000000003 -0.8229999999999942 -17.118000000000002 -1.9609999999999945 -17.484 C -3.0769999999999946 -17.844 -4.218999999999994 -18.122000000000003 -5.350999999999995 -18.431 C -6.4729999999999945 -18.739 -7.622999999999994 -18.957 -8.702999999999994 -19.42 C -7.580999999999994 -19.366000000000003 -6.478999999999994 -19.225 -5.374999999999995 -19.097 C -4.237999999999994 -18.966 -3.098999999999995 -18.834 -1.9589999999999947 -18.726000000000003 C -0.8759999999999948 -18.622000000000003 0.2090000000000054 -18.547000000000004 1.2940000000000054 -18.462000000000003 C 0.22900000000000542 -18.961000000000002 -0.8559999999999945 -19.318000000000005 -1.9449999999999945 -19.667 C -3.010999999999995 -20.006 -4.082999999999995 -20.330000000000002 -5.148999999999995 -20.667 C -6.213999999999995 -21.005000000000003 -7.317999999999994 -21.234 -8.291999999999994 -21.838 C -6.0899999999999945 -21.656000000000002 -4.015999999999995 -20.917 -1.8779999999999948 -20.475 C 0.277000000000005 -20.027 2.4340000000000055 -19.594 4.600000000000005 -19.153000000000002 C 4.6040000000000045 -18.734 4.597000000000005 -18.407000000000004 4.610000000000005 -18.083000000000002 C 4.6410000000000045 -17.321 4.842000000000005 -17.05 5.560000000000005 -16.851000000000003 C 6.269000000000005 -16.655 6.981000000000005 -16.456000000000003 7.702000000000005 -16.313000000000002 C 10.887000000000006 -15.685000000000002 14.081000000000005 -15.127000000000002 17.340000000000003 -14.990000000000002 C 20.349000000000004 -14.862000000000002 23.341000000000005 -14.808000000000002 26.308000000000003 -15.463000000000003 C 27.145000000000003 -15.648000000000003 27.842000000000002 -15.896000000000003 27.828000000000003 -16.856 C 32.068000000000005 -16.896 36.239000000000004 -16.272000000000002 40.621 -16.668000000000003 C 40.421 -16.372000000000003 40.358000000000004 -16.180000000000003 40.229 -16.112000000000002 C 40.07 -16.03 39.857 -16.044 39.667 -16.027 C 36.725 -15.794 33.785000000000004 -15.563 30.842000000000002 -15.330000000000002 C 30.458000000000002 -15.299000000000001 30.074 -15.269000000000002 29.69 -15.238000000000001 C 33.25 -14.425 36.854 -14.188 40.453 -13.975000000000001 C 40.496 -13.372000000000002 40.122 -13.471000000000002 39.85 -13.455000000000002 C 38.542 -13.379000000000001 37.234 -13.315000000000001 35.924 -13.242000000000003 C 34.752 -13.178000000000003 33.58 -13.095000000000002 32.406 -13.046000000000003 C 30.933999999999997 -12.982000000000003 29.458 -12.942000000000004 27.985 -12.893000000000002 C 28.804 -12.597000000000003 29.64 -12.336000000000002 30.494 -12.224000000000002 C 33.548 -11.822000000000003 36.611 -11.471000000000002 39.669 -11.097000000000001 C 39.891 -11.071000000000002 40.11 -11.015 40.33 -10.973 C 40.324999999999996 -10.909 40.321 -10.848 40.315 -10.785 C 36.821999999999996 -10.52 33.327999999999996 -10.254 29.738 -9.983 C 33.266999999999996 -9.023 36.838 -8.89 40.406 -8.537 C 40.416 -8.285 40.424 -8.105 40.436 -7.827000000000001 C 37.19 -7.5120000000000005 33.98 -7.199000000000001 30.77 -6.886000000000001 C 33.962 -6.123000000000001 37.221 -5.966000000000001 40.510999999999996 -5.643000000000001 C 40.513 -5.407000000000001 40.51499999999999 -5.174 40.519 -4.905000000000001 C 37.507999999999996 -4.111000000000001 34.418 -3.971000000000001 31.418 -3.2650000000000015 C 34.414 -2.9210000000000016 37.403999999999996 -2.5670000000000015 40.5 -2.7610000000000015 C 40.483 -2.2820000000000014 40.468 -1.8880000000000015 40.451 -1.4530000000000014 C 37.204 -0.7670000000000013 34.007 -0.0950000000000013 30.813000000000002 0.5789999999999986 C 33.997 0.9499999999999986 37.197 0.7709999999999986 40.46 0.6919999999999986 C 40.432 1.0549999999999986 40.411 1.3159999999999985 40.387 1.6329999999999987 C 37.031 2.4069999999999987 33.71 3.1739999999999986 30.389000000000003 3.941999999999999 C 33.697 4.3599999999999985 37.002 3.985999999999999 40.357 3.929999999999999 C 40.299 4.410999999999999 40.251 4.807999999999999 40.208 5.185999999999999 C 36.225 6.1739999999999995 32.321999999999996 7.1419999999999995 28.416999999999998 8.11 C 32.306 8.372 36.158 7.922 40.086999999999996 7.7459999999999996 C 40.062 8.134 40.04 8.477 40.01199999999999 8.901 C 35.035 9.926 30.089999999999993 10.942 24.96999999999999 11.996 C 30.06199999999999 12.438 34.95299999999999 12.185 39.913999999999994 11.602 C 39.888999999999996 11.937000000000001 39.87 12.165000000000001 39.852999999999994 12.392 C 39.684 12.437 39.581999999999994 12.472 39.47599999999999 12.488999999999999 C 37.21699999999999 12.899 34.96199999999999 13.322999999999999 32.70099999999999 13.709 C 29.657999999999994 14.23 26.609999999999992 14.722999999999999 23.563999999999993 15.225999999999999 C 23.206999999999994 15.286 22.84499999999999 15.322 22.484999999999992 15.369 C 26.64999999999999 16.124 30.834999999999994 16.042 35.03099999999999 15.905 C 34.91199999999999 15.984 34.791999999999994 16.027 34.666999999999994 16.047 C 32.88399999999999 16.32 31.102999999999994 16.604 29.318999999999996 16.858 C 26.445999999999994 17.268 23.549999999999997 17.417 20.656999999999996 17.35 C 18.477999999999998 17.298000000000002 16.295999999999996 17.142000000000003 14.128999999999998 16.906000000000002 C 10.275999999999998 16.486 6.451999999999998 15.865000000000002 2.7189999999999976 14.789000000000001 C 0.07299999999999773 14.026000000000002 -2.636000000000003 13.450000000000001 -5.169000000000002 12.336000000000002 C -7.117000000000003 11.478000000000002 -9.068000000000001 10.612000000000002 -10.949000000000002 9.622000000000002 C -12.516000000000002 8.795000000000002 -13.982000000000001 7.775000000000002 -15.496000000000002 6.850000000000001 C -15.699000000000002 6.725000000000001 -15.928000000000003 6.645000000000001 -16.146 6.545000000000002 C -16.096 6.460000000000002 -16.043 6.378000000000002 -15.992 6.294000000000001 C -15.719000000000001 6.381000000000001 -15.444 6.466000000000001 -15.172 6.558000000000002 C -12.328000000000001 7.5150000000000015 -9.488 8.490000000000002 -6.635 9.426000000000002 C -5.417999999999999 9.825000000000003 -4.163 10.069000000000003 -2.8659999999999997 10.109000000000002 C -5.28 9.205 -7.479 7.878 -9.75 6.693 C -12.017 5.512 -14.274 4.309 -16.583 3.089" stroke-linecap="round" />
</g>
		<g transform="matrix(1.5810133449604729 0 0 -1.5810133449604729 25.411283554855686 -35.88192973781179)"  >
<path style="stroke: none; stroke-width: 1; stroke-dasharray: none; stroke-linecap: butt; stroke-dashoffset: 0; stroke-linejoin: miter; stroke-miterlimit: 4; fill: rgb(171,113,54); fill-rule: evenodd; opacity: 1;"  paint-order="stroke"  transform=" translate(-4.6565, -1.5596805363765212)" d="M 0 0 C 2.685 0.818 5.415 1.084 8.202 0.659 C 5.492 0.151 2.762 -0.129 0 0 M 0.439 -1.287 C 2.8810000000000002 -0.6159999999999999 5.362 -0.2869999999999999 7.901 -0.5509999999999999 C 5.454 -1.15 2.979 -1.493 0.439 -1.287 M 8.045 2.238 C 5.336 1.728 2.588 1.66 -0.153 1.532 C 2.509 2.579 5.255 2.662 8.045 2.238 M 8.13 3.825 C 5.488 3.207 2.799 3.289 0.102 3.347 C 2.726 4.215 5.419 4.143 8.13 3.825 M 8.931 5.669 C 5.423 5.57 1.916 5.428 -1.726 5.296 C -1.672 2.583 -1.623 0.034 -1.572 -2.551 C 2.683 -1.925 6.82 -1.317 11.039 -0.694 C 10.959 1.381 10.88 3.384 10.8 5.438 C 10.163 5.522 9.545 5.687 8.931 5.669" stroke-linecap="round" />
</g>
		<g transform="matrix(1.5810133449604729 0 0 -1.5810133449604729 -2.9695842673437483 -34.33975767742098)"  >
<path style="stroke: none; stroke-width: 1; stroke-dasharray: none; stroke-linecap: butt; stroke-dashoffset: 0; stroke-linejoin: miter; stroke-miterlimit: 4; fill: rgb(255,255,255); fill-rule: evenodd; opacity: 1;"  paint-order="stroke"  transform=" translate(7.494761521817161, 3.628152128570024)" d="M 0 0 C 0.034 -1.636 0.005 -3.272 0.011 -4.908 C 0.015 -5.617 0.038 -6.324 0.05399999999999999 -7.083 C -0.02700000000000001 -7.589 -0.42 -7.908 -1.123 -7.932 C -1.994 -7.964 -2.867 -7.937 -3.739 -7.98 C -6.758 -8.124 -9.785 -8.172 -12.788 -8.583 C -13.86 -8.731 -14.475 -8.221 -14.633000000000001 -7.133 C -14.918000000000001 -5.163 -15.206000000000001 -3.194 -15.487 -1.2249999999999996 C -15.588000000000001 -0.5209999999999997 -15.388 -0.11099999999999954 -14.697 0.0900000000000003 C -13.995999999999999 0.29500000000000026 -13.267 0.4290000000000003 -12.542 0.5170000000000003 C -10.109 0.8120000000000003 -7.676 1.1120000000000003 -5.236 1.3320000000000003 C -3.9899999999999998 1.4440000000000004 -2.73 1.4140000000000004 -1.4779999999999998 1.4130000000000003 C -0.42 1.41 -0.022 1.045 0 0 M -8.024 2.875 C -10.886999999999999 2.708 -13.692999999999998 2.113 -16.497 1.537 C -16.724 1.488 -16.938 1.382 -17.117 1.3179999999999998 C -17.126 -2.676 -16.3 -6.44 -15.329 -10.275 C -9.472000000000001 -9.864 -3.719000000000001 -9.461 2.021000000000001 -9.057 C 2.231 -8.143 2.105 1.158 1.865 2.541 C 0.93 2.868 -0.077 3.016 -1.077 3.018 C -3.394 3.022 -5.713 3.013 -8.024 2.875" stroke-linecap="round" />
</g>
		<g transform="matrix(1.5810133449604729 0 0 -1.5810133449604729 -3.2316190131242593 -34.51528001457842)"  >
<path style="stroke: none; stroke-width: 1; stroke-dasharray: none; stroke-linecap: butt; stroke-dashoffset: 0; stroke-linejoin: miter; stroke-miterlimit: 4; fill: rgb(171,113,54); fill-rule: evenodd; opacity: 1;"  paint-order="stroke"  transform=" translate(-5.6555, 1.8530332445631794)" d="M 0 0 C 0.248 -1.628 0.484 -3.179 0.719 -4.721 C 4.259 -4.529 7.73 -4.341 11.247 -4.151 C 11.268 -2.453 11.29 -0.774 11.311 0.9750000000000005 C 7.396 1.196 3.735 0.448 0 0" stroke-linecap="round" />
</g>
		<g transform="matrix(1.5810133449604729 0 0 -1.5810133449604729 -30.367341559353235 -29.998061245455403)"  >
<path style="stroke: none; stroke-width: 1; stroke-dasharray: none; stroke-linecap: butt; stroke-dashoffset: 0; stroke-linejoin: miter; stroke-miterlimit: 4; fill: rgb(171,113,54); fill-rule: evenodd; opacity: 1;"  paint-order="stroke"  transform=" translate(-4.011, -3.178)" d="M 0 0 C 2.609 1.22 5.404 1.664 8.243 1.922 C 5.633 0.713 2.83 0.312 0 0 M 6.606 3.087 C 4.361 2.154 1.967 1.879 -0.403 1.497 C 1.78 2.7 4.169 2.997 6.606 3.087 M 7.315 4.645 C 4.859 3.806 2.342 3.274 -0.244 3.068 C 2.158 4.145 4.674 4.687 7.315 4.645 M 6.172 6.11 C 4.07 5.211 1.909 4.911 -0.226 4.486 C 0.626 5.3 3.976 6.162 6.172 6.11 M -2.888 5.534 C -2.483 2.999 -2.094 0.557 -1.7 -1.915 C 2.534 -0.982 6.743 -0.054 10.91 0.865 C 10.482 3.325 10.058 5.763 9.621 8.271 C 5.465 7.674 1.379 6.526 -2.888 5.534" stroke-linecap="round" />
</g>
		<g transform="matrix(1.5810133449604729 0 0 -1.5810133449604729 -2.041968366732476 46.51128515187878)"  >
<path style="stroke: none; stroke-width: 1; stroke-dasharray: none; stroke-linecap: butt; stroke-dashoffset: 0; stroke-linejoin: miter; stroke-miterlimit: 4; fill: rgb(234,178,82); fill-rule: evenodd; opacity: 1;"  paint-order="stroke"  transform=" translate(33.17653914937925, -3.6955000000000098)" d="M 0 0 C -0.714 -1.578 -1.606 -3.043 -2.641 -4.419 C -4.962 -7.513 -7.586 -10.323 -10.623000000000001 -12.73 C -11.179000000000002 -13.17 -11.776000000000002 -13.56 -12.361 -13.959 C -12.903 -14.33 -13.477 -14.655999999999999 -13.998000000000001 -15.049 C -15.705000000000002 -16.339 -17.6 -17.319 -19.432000000000002 -18.404 C -21.783 -19.795 -24.086000000000002 -21.265 -26.256 -22.931 C -26.335 -22.992 -26.418 -23.051000000000002 -26.581 -23.035 C -26.436 -22.858 -26.304 -22.666 -26.145 -22.503 C -24.238 -20.533 -22.178 -18.744 -19.912 -17.2 C -17.451999999999998 -15.526 -14.943999999999999 -13.92 -12.511999999999999 -12.204999999999998 C -11.309 -11.359999999999998 -10.168999999999999 -10.401999999999997 -9.104999999999999 -9.386 C -6.791999999999998 -7.1739999999999995 -4.652999999999999 -4.794999999999999 -2.916999999999999 -2.0939999999999994 C -0.569999999999999 1.5570000000000004 0.947000000000001 5.542000000000001 1.7270000000000012 9.81 C 1.8500000000000012 10.494 1.978000000000001 11.178 2.104000000000001 11.861 C 2.135000000000001 11.861 2.165000000000001 11.859 2.194000000000001 11.861 C 2.221 11.707 2.271 11.553 2.271 11.399 C 2.277 7.448 1.643 3.627 0 0 M -22.63 -17.481 C -21.044 -16.271 -19.448999999999998 -15.073000000000002 -17.865 -13.860000000000001 C -14.604999999999999 -11.361 -11.589999999999998 -8.581000000000001 -8.758999999999999 -5.617000000000001 C -6.772999999999999 -3.540000000000001 -5.1869999999999985 -1.141000000000001 -3.935999999999998 1.4629999999999992 C -2.2979999999999983 4.871999999999999 -1.0529999999999982 8.419 -0.26199999999999823 12.122 C -0.22399999999999823 12.306 -0.17899999999999822 12.487 -0.06099999999999822 12.665 C -0.054999999999998224 12.485 -0.03599999999999822 12.306999999999999 -0.04399999999999822 12.126999999999999 C -0.15 9.637 -0.559 7.204 -1.195 4.782 C -2.387 0.248 -4.726 -3.617 -7.911 -6.963 C -9.792 -8.936 -11.861 -10.739 -13.928999999999998 -12.522 C -14.956999999999999 -13.408 -16.139999999999997 -14.13 -17.308999999999997 -14.83 C -19.229 -15.981 -21.195999999999998 -17.057 -23.145999999999997 -18.158 C -23.179 -18.179000000000002 -23.238999999999997 -18.149 -23.397999999999996 -18.130000000000003 C -23.106999999999996 -17.882 -22.877999999999997 -17.669000000000004 -22.629999999999995 -17.481 M -18.723999999999997 -12.698 C -14.583999999999996 -9.197000000000001 -11.172999999999996 -5.074000000000001 -8.154999999999996 -0.5850000000000009 C -6.246999999999996 2.2519999999999993 -4.760999999999996 5.262 -3.772999999999996 8.52 C -3.410999999999996 9.719 -3.180999999999996 10.959999999999999 -2.8889999999999962 12.181999999999999 C -2.856999999999996 12.304999999999998 -2.812999999999996 12.421999999999999 -2.772999999999996 12.543 C -2.772999999999996 10.122 -2.999999999999996 7.747999999999999 -3.659999999999996 5.412999999999999 C -4.381999999999996 2.8569999999999993 -5.532999999999996 0.5379999999999994 -7.027999999999996 -1.6420000000000003 C -8.789999999999996 -4.212 -10.527999999999995 -6.811 -12.869999999999996 -8.894 C -14.395999999999995 -10.251 -16.061999999999998 -11.453 -17.702999999999996 -12.674 C -18.566999999999997 -13.317 -19.510999999999996 -13.854 -20.490999999999996 -14.350999999999999 C -19.901999999999997 -13.799999999999999 -19.338999999999995 -13.218 -18.723999999999997 -12.697999999999999 M -14.077999999999996 -5.695999999999999 C -11.270999999999995 -1.811999999999999 -8.820999999999996 2.279000000000001 -6.872999999999996 6.659000000000002 C -6.508999999999996 7.4780000000000015 -6.273999999999996 8.353000000000002 -5.9599999999999955 9.262000000000002 C -5.817999999999995 8.431000000000003 -5.925999999999996 7.6510000000000025 -6.105999999999995 6.902000000000003 C -7.3029999999999955 1.9710000000000027 -9.588999999999995 -2.3829999999999973 -13.087999999999996 -6.072999999999997 C -14.195999999999996 -7.242999999999997 -15.353999999999996 -8.362999999999996 -16.491999999999997 -9.504999999999997 C -16.602999999999998 -9.615999999999998 -16.733999999999998 -9.703999999999997 -16.856999999999996 -9.804999999999998 C -16.883999999999997 -9.776999999999997 -16.909999999999997 -9.755999999999998 -16.937999999999995 -9.730999999999998 C -15.983999999999995 -8.384999999999998 -15.042999999999996 -7.030999999999998 -14.077999999999996 -5.695999999999998 M -13.184999999999995 2.0020000000000024 C -13.884999999999994 -0.09699999999999775 -14.998999999999995 -1.9379999999999975 -16.600999999999996 -3.4759999999999973 C -15.695999999999996 -1.5049999999999972 -14.517999999999995 0.2970000000000028 -13.184999999999995 2.0020000000000024 M -9.078999999999995 5.772000000000002 C -9.326999999999995 2.759000000000002 -13.794999999999995 -4.484999999999998 -16.542999999999996 -6.304999999999998 C -14.197999999999995 -2.1979999999999977 -11.474999999999996 1.676000000000002 -9.078999999999995 5.772000000000002 M -34.91799999999999 -10.988999999999997 C -32.154999999999994 -11.863999999999997 -29.82099999999999 -13.339999999999996 -28.07099999999999 -15.925999999999998 C -30.45899999999999 -14.202999999999998 -32.68799999999999 -12.596999999999998 -34.91799999999999 -10.988999999999997 M -39.21199999999999 -12.067999999999998 C -35.40799999999999 -11.661999999999997 -30.37899999999999 -14.853999999999997 -29.13599999999999 -17.291999999999998 C -32.26299999999999 -15.024999999999999 -35.54199999999999 -13.183999999999997 -39.21199999999999 -12.067999999999998 M -29.43899999999999 -21.651999999999997 C -31.59599999999999 -19.775999999999996 -34.13599999999999 -18.493 -36.56099999999999 -17.034999999999997 C -38.077999999999996 -16.122999999999998 -39.61299999999999 -15.239999999999997 -41.13699999999999 -14.338999999999997 C -41.20199999999999 -14.300999999999997 -41.245999999999995 -14.223999999999997 -41.42999999999999 -14.026999999999997 C -36.62299999999999 -15.587999999999997 -32.27199999999999 -17.528 -29.182999999999993 -21.674 C -29.345999999999993 -21.662 -29.409999999999993 -21.678 -29.438999999999993 -21.652 M -40.05 -16.662 C -40.020999999999994 -16.616999999999997 -39.989 -16.573 -39.958 -16.529 C -36.08 -18.163 -32.419 -20.105 -29.976 -23.718 C -33.333999999999996 -21.367 -36.692 -19.015 -40.05 -16.662 M -36.483 -20.784 C -34.055 -21.796 -32.041 -23.299 -30.791999999999998 -25.674 C -32.689 -24.044999999999998 -34.586 -22.415 -36.483 -20.784 M -38.601 -19.192 C -42.041 -17.674 -45.487 -16.17 -48.916 -14.626999999999999 C -50.779999999999994 -13.790999999999999 -52.629 -12.908999999999999 -54.461 -12.001999999999999 C -57.589 -10.450999999999999 -60.504 -8.566999999999998 -62.879999999999995 -5.987999999999999 C -64.907 -3.788999999999999 -66.535 -1.294999999999999 -67.73299999999999 1.463000000000001 C -68.91899999999998 4.191000000000001 -69.68199999999999 7.026000000000001 -69.87599999999999 10.001000000000001 C -69.90599999999999 10.459000000000001 -69.86399999999999 10.918000000000001 -69.85399999999998 11.509 C -69.50299999999999 10.174 -69.23499999999999 8.967 -68.86899999999999 7.789 C -67.74699999999999 4.186999999999999 -65.98099999999998 0.9119999999999999 -63.88899999999998 -2.2249999999999996 C -61.75299999999998 -5.427 -58.91199999999998 -7.784999999999999 -55.594999999999985 -9.609 C -53.46899999999999 -10.777 -51.23599999999998 -11.748 -49.10799999999998 -12.913 C -45.877999999999986 -14.682 -42.69699999999998 -16.536 -39.499999999999986 -18.365000000000002 C -39.15099999999999 -18.566000000000003 -38.83999999999999 -18.835 -38.51099999999999 -19.072000000000003 C -38.54099999999999 -19.111000000000004 -38.57099999999999 -19.151000000000003 -38.60099999999999 -19.192000000000004 M -67.488 10.418999999999997 C -67.119 9.465999999999998 -66.773 8.501999999999997 -66.375 7.561999999999997 C -65.484 5.4469999999999965 -64.668 3.2949999999999964 -63.637 1.2499999999999964 C -62.06 -1.8820000000000037 -59.728 -4.385000000000003 -56.792 -6.326000000000003 C -55.832 -6.962000000000003 -54.821 -7.474000000000003 -53.787 -7.972000000000003 C -50.594 -9.507000000000003 -47.353 -10.954000000000004 -44.288 -12.746000000000002 C -44.20099999999999 -12.798000000000002 -44.13399999999999 -12.885000000000002 -43.906 -13.091000000000003 C -44.938 -12.733000000000002 -45.788 -12.446000000000003 -46.634 -12.147000000000002 C -47.892 -11.703000000000001 -49.155 -11.268000000000002 -50.406 -10.801000000000002 C -52.168 -10.143000000000002 -53.943 -9.510000000000002 -55.668 -8.763000000000002 C -56.561 -8.376000000000001 -57.385999999999996 -7.809000000000002 -58.185 -7.242000000000002 C -61.883 -4.616000000000001 -64.561 -1.2440000000000015 -65.874 3.1679999999999984 C -66.536 5.395999999999999 -67.088 7.644999999999999 -67.57 9.915 C -67.60199999999999 10.066999999999998 -67.615 10.222999999999999 -67.636 10.375 C -67.58699999999999 10.391 -67.538 10.403 -67.488 10.419 M -65.407 10.095 C -64.64999999999999 8.524000000000001 -63.895999999999994 6.955 -63.132999999999996 5.389 C -61.50299999999999 2.0460000000000003 -59.281 -0.7930000000000001 -56.28699999999999 -3.0520000000000005 C -54.12899999999999 -4.681000000000001 -52.00599999999999 -6.354000000000001 -49.68799999999999 -7.7490000000000006 C -48.005999999999986 -8.76 -46.27699999999999 -9.691 -44.57099999999999 -10.663 C -44.31599999999999 -10.81 -44.06999999999999 -10.973 -43.87199999999999 -11.238 C -45.11299999999999 -10.777 -46.35699999999999 -10.324 -47.59499999999999 -9.854 C -51.620999999999995 -8.328 -55.18599999999999 -6.040999999999999 -58.46699999999999 -3.280999999999999 C -61.00099999999999 -1.149999999999999 -62.72399999999999 1.5340000000000016 -63.83999999999999 4.618000000000001 C -64.39699999999999 6.157000000000001 -64.844 7.735000000000001 -65.33299999999998 9.298000000000002 C -65.41199999999998 9.548000000000002 -65.44899999999998 9.809000000000001 -65.50699999999999 10.065000000000001 C -65.47399999999999 10.075000000000001 -65.44 10.084000000000001 -65.407 10.095 M -55.516 -0.3780000000000001 C -53.948 -2.205 -51.933 -3.483 -49.974999999999994 -4.828 C -49.754 -4.98 -49.532 -5.13 -49.36599999999999 -5.392 C -49.937999999999995 -5.154 -50.519999999999996 -4.937 -51.080999999999996 -4.675000000000001 C -52.638999999999996 -3.948000000000001 -54.224 -3.2480000000000007 -55.522999999999996 -2.0900000000000007 C -56.398999999999994 -1.3120000000000007 -57.244 -0.48600000000000065 -58.019999999999996 0.3909999999999991 C -60.339999999999996 3.0189999999999992 -62.17099999999999 5.944999999999999 -63.297999999999995 9.285999999999998 C -63.373 9.509999999999998 -63.42699999999999 9.740999999999998 -63.492999999999995 9.966999999999999 C -61.285999999999994 6.1309999999999985 -58.342 2.9189999999999987 -55.51599999999999 -0.3780000000000019 M -49.18499999999999 -2.483000000000002 C -50.93799999999999 -2.080000000000002 -52.82199999999999 -0.7250000000000019 -54.304999999999986 1.195999999999998 C -52.329999999999984 0.17699999999999805 -50.941999999999986 -1.410000000000002 -49.18499999999999 -2.483000000000002 M -29.32299999999999 -19.004 C -33.01699999999999 -16.929000000000002 -36.55599999999999 -14.938000000000002 -40.09599999999999 -12.948 C -35.93599999999999 -13.83 -32.35399999999999 -15.747 -29.32299999999999 -19.004 M 0.041 24.439 C -0.009000000000000001 24.532 -0.12 24.59 -0.328 24.778 C -0.22400000000000003 23.802999999999997 -0.12300000000000003 22.994 -0.05499999999999999 22.185 C 0.017 21.343 0.08100000000000002 20.496 0.10400000000000001 19.65 C 0.126 18.869 0.09100000000000001 18.087 0.08100000000000002 17.307 C -0.427 18.895999999999997 -0.794 20.487 -1.236 22.058 C -1.681 23.634 -2.129 25.214 -2.7030000000000003 26.746 C -3.2870000000000004 28.304 -4.0280000000000005 29.802999999999997 -4.698 31.325 C -5.343 32.791 -5.831 34.327 -6.713000000000001 35.694 C -6.645000000000001 35.095000000000006 -6.530000000000001 34.508 -6.315000000000001 33.962 C -5.763000000000002 32.565000000000005 -5.158000000000001 31.188000000000002 -4.588000000000001 29.799000000000003 C -3.670000000000001 27.559000000000005 -3.1110000000000007 25.229000000000003 -2.8920000000000012 22.821000000000005 C -2.8350000000000013 22.196000000000005 -2.8020000000000014 21.570000000000004 -2.7540000000000013 20.886000000000006 C -3.6210000000000013 23.033000000000005 -4.373000000000001 25.143000000000008 -5.318000000000001 27.16100000000001 C -6.2570000000000014 29.16200000000001 -7.3900000000000015 31.06800000000001 -8.437000000000001 33.01800000000001 C -8.248000000000001 32.06300000000001 -7.966000000000001 31.157000000000007 -7.6030000000000015 30.28300000000001 C -7.249000000000001 29.43200000000001 -6.811000000000002 28.614000000000008 -6.410000000000002 27.78100000000001 C -8.967000000000002 30.00800000000001 -10.203000000000003 33.043000000000006 -11.629000000000001 35.97000000000001 C -11.647000000000002 35.801000000000016 -11.634000000000002 35.64400000000001 -11.583000000000002 35.500000000000014 C -10.612000000000002 32.737000000000016 -9.514000000000003 30.043000000000013 -7.955000000000002 27.541000000000015 C -7.280000000000002 26.458000000000016 -6.6320000000000014 25.308000000000014 -6.270000000000001 24.098000000000013 C -5.2440000000000015 20.657000000000014 -5.941000000000002 17.452000000000012 -7.993000000000001 14.540000000000013 C -9.044 13.049000000000014 -10.385000000000002 11.849000000000014 -11.936000000000002 10.883000000000013 C -12.179000000000002 10.733000000000013 -12.413000000000002 10.570000000000013 -12.651000000000002 10.411000000000014 C -11.933000000000002 10.248000000000014 -11.310000000000002 10.394000000000014 -10.698000000000002 10.635000000000014 C -10.372000000000002 10.765000000000015 -10.033000000000001 10.905000000000014 -9.690000000000001 10.938000000000015 C -8.872000000000002 11.020000000000016 -8.396 10.504000000000016 -8.507000000000001 9.691000000000015 C -8.546 9.399 -8.64 9.108 -8.741 8.828 C -9.644 6.362 -11.322 4.567 -13.543 3.212 C -15.078999999999999 2.2750000000000004 -16.777 1.7740000000000002 -18.637999999999998 1.1980000000000004 C -18.622999999999998 0.5280000000000004 -18.677 -0.12699999999999956 -18.578 -0.7609999999999997 C -18.448999999999998 -1.5949999999999998 -18.216 -2.412 -18.003 -3.2289999999999996 C -17.759 -4.167999999999999 -17.583 -5.125 -17.89 -6.06 C -18.748 -8.676 -20.401 -10.568999999999999 -23.066000000000003 -11.465 C -24.988000000000003 -12.111 -26.968000000000004 -12.203 -28.974000000000004 -12.052999999999999 C -30.762000000000004 -11.918 -32.222 -11.152999999999999 -33.386 -9.816999999999998 C -33.75 -9.396999999999998 -34.035000000000004 -8.905999999999999 -34.346000000000004 -8.463999999999999 C -34.417 -8.480999999999998 -34.446000000000005 -8.480999999999998 -34.468 -8.495 C -34.627 -8.600999999999999 -34.785000000000004 -8.707999999999998 -34.939 -8.821 C -37.429 -10.62 -40.187 -10.905999999999999 -43.063 -10.116999999999999 C -45.186 -9.534999999999998 -46.565000000000005 -7.959 -47.664 -6.145999999999999 C -48.072 -5.469999999999999 -48.08 -4.672999999999999 -47.895 -3.911999999999999 C -47.741 -3.274999999999999 -47.509 -2.6599999999999993 -47.331 -2.027999999999999 C -47.068000000000005 -1.092999999999999 -46.752 -0.16299999999999915 -46.88 0.8830000000000009 C -47.415 0.8710000000000009 -47.902 0.8770000000000009 -48.387 0.8480000000000009 C -49.873 0.7610000000000009 -51.341 0.8710000000000009 -52.75 1.3690000000000009 C -53.956 1.7950000000000008 -55.208 2.173000000000001 -56.201 3.020000000000001 C -57.008 3.708000000000001 -57.762 4.469000000000001 -58.471000000000004 5.258000000000001 C -59.426 6.323 -60.086000000000006 7.589 -60.726000000000006 8.861 C -61.029 9.461 -60.825 9.988000000000001 -60.474000000000004 10.463000000000001 C -60.207 10.825000000000001 -59.789 10.917000000000002 -59.364000000000004 10.773000000000001 C -57.851000000000006 10.266000000000002 -56.346000000000004 10.539000000000001 -54.84 10.804000000000002 C -54.618 10.844000000000001 -54.406000000000006 10.940000000000001 -54 11.069000000000003 C -58.569 12.635000000000003 -61.144999999999996 15.521000000000003 -61.136 20.357000000000003 C -62.019000000000005 18.113000000000003 -61.714000000000006 15.836000000000002 -61.333000000000006 13.383000000000003 C -62.02 14.427000000000003 -62.24700000000001 15.439000000000004 -62.51800000000001 16.436000000000003 C -62.79200000000001 17.444000000000003 -62.93800000000001 18.475000000000005 -62.84600000000001 19.518000000000004 C -62.75600000000001 20.537000000000003 -62.58900000000001 21.552000000000003 -62.45600000000001 22.570000000000004 C -63.07100000000001 21.552000000000003 -63.59100000000001 20.478000000000005 -63.81700000000001 19.308000000000003 C -64.04700000000001 18.121000000000002 -64.147 16.908000000000005 -64.305 15.707000000000004 C -64.75500000000001 16.837000000000003 -64.84200000000001 18.002000000000002 -64.80600000000001 19.167000000000005 C -64.73400000000001 21.473000000000006 -64.09400000000001 23.634000000000004 -63.03800000000001 25.677000000000007 C -62.87700000000001 25.988000000000007 -62.72500000000001 26.303000000000008 -62.56900000000001 26.617000000000008 C -62.62000000000001 26.646000000000008 -62.67000000000001 26.672000000000008 -62.72000000000001 26.70200000000001 C -63.29300000000001 25.907000000000007 -63.890000000000015 25.12700000000001 -64.436 24.314000000000007 C -64.98200000000001 23.500000000000007 -65.524 22.674000000000007 -65.98100000000001 21.809000000000008 C -66.42500000000001 20.968000000000007 -66.76 20.06800000000001 -67.141 19.195000000000007 C -66.918 23.31000000000001 -65.019 26.738000000000007 -62.78300000000001 30.03600000000001 C -63.43900000000001 29.44000000000001 -64.06700000000001 28.841000000000008 -64.64600000000002 28.195000000000007 C -65.26700000000001 27.508000000000006 -65.90400000000001 26.822000000000006 -66.42200000000001 26.058000000000007 C -68.92000000000002 22.378000000000007 -70.20400000000001 18.247000000000007 -70.57800000000002 13.862000000000007 C -70.87400000000002 10.378000000000007 -70.30900000000001 6.941000000000007 -69.36200000000002 3.587000000000007 C -69.05900000000003 2.516000000000007 -68.59700000000002 1.481000000000007 -68.13000000000002 0.46600000000000685 C -66.46100000000003 -3.158999999999993 -64.26600000000002 -6.399999999999993 -60.97900000000003 -8.757999999999994 C -58.94100000000003 -10.219999999999994 -56.81300000000003 -11.555999999999994 -54.71900000000003 -12.937999999999994 C -54.44800000000003 -13.116999999999994 -54.13800000000003 -13.239999999999993 -53.84600000000003 -13.384999999999993 C -51.38200000000003 -14.613999999999994 -48.88200000000003 -15.779999999999992 -46.458000000000034 -17.086999999999993 C -43.48300000000003 -18.690999999999992 -40.418000000000035 -20.121999999999993 -37.53300000000003 -21.907999999999994 C -34.89200000000003 -23.538999999999994 -32.56900000000003 -25.461999999999993 -30.75400000000003 -27.982999999999993 C -30.61300000000003 -28.178999999999995 -30.51700000000003 -28.406999999999993 -30.42300000000003 -28.578999999999994 C -29.52200000000003 -27.629999999999992 -28.75500000000003 -26.745999999999995 -27.90900000000003 -25.943999999999996 C -26.38500000000003 -24.494999999999994 -24.87100000000003 -23.033999999999995 -23.11600000000003 -21.846999999999994 C -21.08100000000003 -20.468999999999994 -19.082000000000033 -19.031999999999993 -17.064000000000032 -17.626999999999995 C -14.934000000000033 -16.146999999999995 -12.798000000000032 -14.670999999999996 -10.663000000000032 -13.196999999999996 C -10.415000000000033 -13.024999999999995 -10.161000000000032 -12.862999999999996 -9.900000000000032 -12.714999999999996 C -8.151000000000032 -11.724999999999996 -6.573000000000032 -10.520999999999997 -5.220000000000033 -9.027999999999997 C -4.945000000000032 -8.722999999999997 -4.642000000000032 -8.443999999999997 -4.338000000000033 -8.170999999999998 C -1.563000000000033 -5.673999999999998 0.26599999999996715 -2.5089999999999977 1.9299999999999669 0.7650000000000023 C 2.865999999999967 2.6040000000000023 3.353999999999967 4.599000000000002 3.8019999999999667 6.599000000000002 C 4.245999999999967 8.584000000000001 4.431999999999967 10.582000000000003 4.209999999999967 12.621000000000002 C 3.743999999999967 16.892000000000003 2.0709999999999673 20.726000000000003 0.04099999999996751 24.439" stroke-linecap="round" />
</g>
		<g transform="matrix(1.5810133449604729 0 0 -1.5810133449604729 -1.5471938454136307 58.40918356358304)"  >
<path style="stroke: none; stroke-width: 1; stroke-dasharray: none; stroke-linecap: butt; stroke-dashoffset: 0; stroke-linejoin: miter; stroke-miterlimit: 4; fill: rgb(247,236,192); fill-rule: evenodd; opacity: 1;"  paint-order="stroke"  transform=" translate(9.185891429553886, -0.6056110788412621)" d="M 0 0 C -0.18 -0.924 -1.094 -1.945 -2.395 -2.529 C -1.615 -1.705 -0.836 -0.883 0 0 M 1.213 -0.062 C 0.531 -1.714 -0.5209999999999999 -3.009 -2.285 -3.7199999999999998 C -1.08 -2.46 0.06599999999999984 -1.2609999999999997 1.213 -0.06199999999999983 M -0.5739999999999998 -3.8249999999999997 C -0.07699999999999985 -3.2809999999999997 0.43900000000000006 -2.7509999999999994 0.9130000000000003 -2.186 C 1.3800000000000003 -1.63 1.8010000000000002 -1.037 2.2410000000000005 -0.45999999999999996 C 1.9020000000000006 -2.0709999999999997 0.9180000000000006 -3.156 -0.5739999999999994 -3.825 M -16.624 -1.342 C -16.676 -1.363 -16.727999999999998 -1.387 -16.779 -1.4100000000000001 C -16.96 -1.0070000000000001 -17.139 -0.6030000000000001 -17.318 -0.19900000000000007 C -17.269000000000002 -0.17700000000000007 -17.221 -0.15500000000000008 -17.172 -0.13600000000000007 C -16.990000000000002 -0.536 -16.806 -0.9390000000000001 -16.624000000000002 -1.342 M -18.779000000000003 1.407 C -18.612000000000002 0.16199999999999992 -18.746000000000002 -1.193 -17.570000000000004 -2.089 C -18.826000000000004 -1.608 -19.409000000000002 -0.53 -18.779000000000003 1.407 M -20.465000000000003 1.332 C -20.327 1.744 -20.151000000000003 2.146 -20.018000000000004 2.558 C -19.894000000000005 2.944 -19.807000000000006 3.344 -19.678000000000004 3.8309999999999995 C -19.417000000000005 3.0009999999999994 -19.603000000000005 2.2789999999999995 -19.806000000000004 1.5719999999999996 C -20.079000000000004 0.6249999999999997 -20.159000000000006 -0.3050000000000004 -19.633000000000006 -1.1900000000000004 C -19.411000000000005 -1.5620000000000003 -19.134000000000007 -1.9000000000000004 -18.874000000000006 -2.2650000000000006 C -20.368000000000006 -1.5740000000000007 -20.981000000000005 -0.2020000000000004 -20.465000000000007 1.3319999999999994 M -3.113 0.839 C -4.6579999999999995 -0.09400000000000008 -6.375 -0.3480000000000001 -8.139 -0.41100000000000003 C -8.452 -0.42400000000000004 -8.764 -0.467 -9.120999999999999 -0.499 C -9.104999999999999 -0.887 -9.076999999999998 -1.183 -9.083999999999998 -1.479 C -9.138999999999998 -3.5460000000000003 -7.326999999999998 -5.3100000000000005 -5.487999999999998 -5.505 C -3.761999999999998 -5.6899999999999995 -2.059999999999998 -5.657 -0.3739999999999979 -5.186 C 1.397000000000002 -4.687 2.623000000000002 -3.5629999999999997 3.456000000000002 -1.9609999999999999 C 3.863000000000002 -1.1769999999999998 3.9710000000000023 -0.35599999999999987 3.7170000000000023 0.4990000000000001 C 3.252 2.069 2.854 3.65 2.908 5.272 C 1.966 5.349 1.067 5.371 0.186 5.51 C -0.7230000000000001 5.651 -1.614 5.906 -2.5340000000000003 6.117999999999999 C -3.0540000000000003 4.952999999999999 -3.9910000000000005 4.484 -5.146000000000001 4.347999999999999 C -6.474000000000001 4.188999999999999 -7.795000000000001 3.978999999999999 -9.141000000000002 4.097999999999999 C -11.181000000000001 4.276999999999999 -13.221000000000002 4.449999999999999 -15.262000000000002 4.623999999999999 C -15.938000000000002 4.680999999999999 -16.479000000000003 4.996999999999999 -16.801000000000002 5.573999999999999 C -17.004 5.933999999999999 -17.062 6.3759999999999994 -17.196 6.820999999999999 C -18.444000000000003 6.423999999999999 -19.732000000000003 6.012999999999999 -20.983 5.614999999999998 C -21.07 4.9449999999999985 -21.1 4.340999999999998 -21.236 3.7599999999999985 C -21.488 2.6989999999999985 -21.773 1.6459999999999986 -22.098 0.6059999999999985 C -22.340999999999998 -0.16900000000000148 -22.252 -0.8080000000000014 -21.692999999999998 -1.4340000000000015 C -20.810999999999996 -2.4170000000000016 -19.709999999999997 -3.0470000000000015 -18.525999999999996 -3.5620000000000016 C -17.550999999999995 -3.9870000000000014 -16.512999999999998 -4.1320000000000014 -15.477999999999996 -3.947000000000002 C -13.850999999999996 -3.657000000000002 -12.376999999999995 -3.047000000000002 -11.501999999999995 -1.506000000000002 C -11.331999999999995 -1.206000000000002 -11.126999999999995 -0.901000000000002 -11.335999999999995 -0.4670000000000021 C -11.703999999999995 -0.4680000000000021 -12.080999999999994 -0.4620000000000021 -12.459999999999996 -0.4710000000000021 C -13.890999999999995 -0.4990000000000021 -15.231999999999996 -0.2510000000000021 -16.353999999999996 0.731999999999998 C -16.730999999999995 1.062999999999998 -17.042999999999996 1.423999999999998 -17.142999999999997 1.973999999999998 C -16.706999999999997 2.277999999999998 -16.339999999999996 2.081999999999998 -15.976999999999997 2.014999999999998 C -15.359999999999996 1.899999999999998 -14.750999999999998 1.731999999999998 -14.129999999999997 1.662999999999998 C -13.262999999999998 1.562999999999998 -12.386999999999997 1.494999999999998 -11.514999999999997 1.481999999999998 C -8.369999999999997 1.426999999999998 -5.233999999999997 1.4869999999999979 -2.2559999999999967 2.703999999999998 C -1.8579999999999965 2.864999999999998 -1.5719999999999965 2.801999999999998 -1.4309999999999967 2.329999999999998 C -1.798 1.621 -2.462 1.233 -3.113 0.839" stroke-linecap="round" />
</g>
		<g transform="matrix(1.5810133449604729 0 0 -1.5810133449604729 -3.4414194840004484 44.01221953252917)"  >
<path style="stroke: none; stroke-width: 1; stroke-dasharray: none; stroke-linecap: butt; stroke-dashoffset: 0; stroke-linejoin: miter; stroke-miterlimit: 4; fill: rgb(247,236,192); fill-rule: evenodd; opacity: 1;"  paint-order="stroke"  transform=" translate(0.23699999999999966, 0.8741266759477845)" d="M 0 0 C -0.759 -0.447 -1.459 -0.856 -2.154 -1.274 C -2.213 -1.308 -2.2439999999999998 -1.3880000000000001 -2.292 -1.452 C -1.1909999999999998 -1.829 1.1510000000000002 -1.854 1.8180000000000005 -1.482 C 1.221 -0.996 0.638 -0.521 0 0" stroke-linecap="round" />
</g>
		<g transform="matrix(1.5810133449604729 0 0 -1.5810133449604729 -4.573108836323115 39.32355175949007)"  >
<path style="stroke: none; stroke-width: 1; stroke-dasharray: none; stroke-linecap: butt; stroke-dashoffset: 0; stroke-linejoin: miter; stroke-miterlimit: 4; fill: rgb(234,178,82); fill-rule: evenodd; opacity: 1;"  paint-order="stroke"  transform=" translate(13.5305, -0.3746825568802681)" d="M 0 0 C 1.904 -0.889 3.837 -1.707 5.862 -2.259 C 3.547 -2.425 1.615 -1.622 0 0 M -1.754 0.337 C 0.11099999999999999 -0.861 1.839 -1.9720000000000002 3.5639999999999996 -3.081 C 1.4989999999999997 -2.538 -0.38700000000000045 -1.656 -1.754 0.3370000000000002 M -2.901 0.093 C -1.2699999999999998 -1.238 0.3640000000000003 -2.568 2.0950000000000006 -3.9779999999999998 C -0.14999999999999947 -3.211 -1.8019999999999992 -1.8899999999999997 -2.901 0.09299999999999997 M -4.612 0.5269999999999999 C -2.965 -1.1940000000000002 -1.4130000000000003 -2.816 0.24599999999999955 -4.5489999999999995 C -1.9910000000000005 -3.3899999999999997 -3.6630000000000003 -1.8869999999999996 -4.612 0.5270000000000001 M -6.184 0.121 C -5.562 -0.255 -3.712 -2.387 -2.951 -3.644 C -4.438000000000001 -2.579 -5.462 -1.3600000000000003 -6.184 0.121 M -7.799 0.725 C -6.784000000000001 -0.29300000000000004 -6.038 -1.495 -5.378 -2.761 C -6.518 -1.83 -7.244 -0.613 -7.7989999999999995 0.7250000000000001 M -8.74 0.564 C -8.293000000000001 -0.19600000000000006 -7.846 -0.9560000000000001 -7.308 -1.874 C -8.062 -1.348 -8.645 -0.40600000000000014 -8.74 0.5640000000000001 M 7.47 -0.921 C 5.8 -1.58 2.32 -0.836 0.756 1.401 C 2.883 0.082 5.023 -0.661 7.47 -0.921 M -16.539 -0.249 C -16.05 0.392 -15.561000000000002 1.029 -15.072000000000001 1.669 C -15.260000000000002 0.795 -15.782 0.16999999999999993 -16.539 -0.2489999999999999 M -19.554000000000002 -1.9069999999999998 C -18.624000000000002 -0.7249999999999999 -17.693 0.4590000000000003 -16.763 1.643 C -16.715000000000003 1.61 -16.667 1.578 -16.617 1.547 C -17.306 0.15900000000000003 -18.103 -1.14 -19.554000000000002 -1.9070000000000003 M -22.586000000000002 -3.0680000000000005 C -21.177000000000003 -1.6030000000000004 -19.768 -0.13400000000000034 -18.358000000000004 1.3339999999999996 C -19.208000000000006 -0.6700000000000004 -20.601000000000003 -2.1530000000000005 -22.586000000000006 -3.0680000000000005 M -25.527000000000005 -3.6870000000000003 C -25.568000000000005 -3.6380000000000003 -25.608000000000004 -3.588 -25.647000000000006 -3.5400000000000005 C -23.756000000000007 -1.9720000000000004 -21.864000000000004 -0.40300000000000047 -19.972000000000005 1.1639999999999993 C -19.925000000000004 1.1099999999999992 -19.880000000000006 1.0539999999999992 -19.835000000000004 0.9969999999999992 C -21.397000000000006 -0.9730000000000008 -23.178000000000004 -2.6770000000000005 -25.527000000000005 -3.687000000000001 M -28.247000000000003 -3.711000000000001 C -26.338000000000005 -2.213000000000001 -24.428000000000004 -0.7120000000000011 -22.518000000000004 0.7879999999999985 C -22.484000000000005 0.7439999999999984 -22.450000000000003 0.6999999999999985 -22.416000000000004 0.6569999999999985 C -23.973000000000003 -1.3040000000000016 -25.769000000000005 -2.9510000000000014 -28.247000000000003 -3.711000000000002 M -30.382000000000005 -3.107000000000002 C -28.580000000000005 -1.957000000000002 -26.776000000000003 -0.8060000000000018 -24.973000000000006 0.34599999999999786 C -24.937000000000005 0.28899999999999787 -24.900000000000006 0.23099999999999787 -24.865000000000006 0.17499999999999785 C -26.434000000000005 -1.3570000000000022 -28.096000000000004 -2.737000000000002 -30.382000000000005 -3.107000000000002 M -26.364000000000004 0.578999999999998 C -27.325000000000003 -0.8240000000000021 -30.926000000000005 -2.538000000000002 -32.657000000000004 -2.382000000000002 C -30.508000000000003 -1.371000000000002 -28.431000000000004 -0.3950000000000018 -26.364000000000004 0.578999999999998 M -34.465 -1.101000000000002 C -32.31400000000001 -0.6910000000000021 -30.346000000000004 0.26899999999999813 -28.282000000000004 0.9369999999999978 C -30.077000000000005 -0.5510000000000022 -32.083000000000006 -1.3920000000000023 -34.465 -1.101000000000002 M 7.498 -2.233 C 8.477 -1.6430000000000002 9.247 -0.8540000000000001 9.781 0.32099999999999973 C 9.544 0.34 9.412 0.365 9.283 0.355 C 6.935 0.178 4.796 0.785 2.829 2.053 C 1.911 2.645 1.009 3.257 0.084 3.837 C -0.887 4.446 -1.87 5.046 -3.012 5.289 C -4.427 5.593 -5.795 5.379 -7.084 4.773 C -8.043 4.319 -8.968 3.785 -9.886 3.251 C -10.898 2.66 -11.811 2.5629999999999997 -12.831999999999999 3.338 C -13.736999999999998 4.025 -14.761999999999999 4.579000000000001 -15.793 5.065 C -16.497 5.398000000000001 -17.291 5.648000000000001 -18.064 5.707000000000001 C -19.979 5.851000000000001 -21.882 5.617000000000001 -23.731 5.095000000000001 C -25.979000000000003 4.4590000000000005 -28.074 3.463000000000001 -30.067 2.255000000000001 C -31.417 1.4380000000000008 -32.833 0.8270000000000008 -34.422 0.6920000000000008 C -35.172999999999995 0.6310000000000009 -35.925999999999995 0.5880000000000009 -36.842 0.5270000000000008 C -36.463 -0.034999999999999254 -36.196999999999996 -0.5419999999999991 -35.824999999999996 -0.9529999999999992 C -35.29599999999999 -1.5379999999999991 -34.70099999999999 -2.0669999999999993 -34.111 -2.5939999999999994 C -32.735 -3.8279999999999994 -31.131999999999998 -4.645999999999999 -29.298999999999996 -4.863999999999999 C -27.368999999999996 -5.094999999999999 -25.427999999999997 -5.056999999999999 -23.528999999999996 -4.541999999999999 C -21.601999999999997 -4.020999999999999 -19.707999999999995 -3.4029999999999987 -17.964999999999996 -2.400999999999999 C -16.426999999999996 -1.5189999999999988 -14.888999999999996 -0.6349999999999989 -13.368999999999996 0.277000000000001 C -12.895999999999995 0.563000000000001 -12.467999999999996 0.643000000000001 -11.999999999999996 0.325000000000001 C -11.662999999999997 0.098000000000001 -11.310999999999996 -0.11499999999999899 -10.987999999999996 -0.36299999999999893 C -10.274999999999997 -0.9129999999999989 -9.568999999999996 -1.4759999999999989 -8.871999999999996 -2.044999999999999 C -7.794999999999996 -2.923999999999999 -6.572999999999997 -3.499999999999999 -5.241999999999996 -3.8739999999999988 C -4.742999999999997 -4.0139999999999985 -4.247999999999997 -4.167999999999998 -3.7559999999999967 -4.331999999999999 C -0.5229999999999966 -5.413999999999999 2.5450000000000035 -4.888999999999999 5.504000000000003 -3.367999999999999 C 6.184000000000003 -3.019999999999999 6.844000000000003 -2.628999999999999 7.498000000000003 -2.2329999999999988" stroke-linecap="round" />
</g>
		<g transform="matrix(1.5810133449604729 0 0 -1.5810133449604729 -2.4564294741738877 11.544233819586793)"  >
<path style="stroke: none; stroke-width: 1; stroke-dasharray: none; stroke-linecap: butt; stroke-dashoffset: 0; stroke-linejoin: miter; stroke-miterlimit: 4; fill: rgb(247,236,192); fill-rule: evenodd; opacity: 1;"  paint-order="stroke"  transform=" translate(20.847888174725878, -11.312360331223983)" d="M 0 0 C 0.426 2.286 0.383 4.556 -0.207 6.819 C 1.161 4.594 1.335 2.319 0 0 M -0.842 11.058 C -1.176 9.749 -1.8 8.562 -2.63 7.494 C -3.875 5.889 -5.49 5.187 -7.503 5.555 C -9.071 5.731 -10.374 6.423 -11.552 7.413 C -13.045 8.67 -14.081 10.271 -15.001 11.954 C -15.482 12.837 -15.636999999999999 13.799000000000001 -15.498999999999999 14.812000000000001 C -15.350999999999999 15.903 -15.085999999999999 16.957 -14.572 17.935000000000002 C -14.034999999999998 18.959000000000003 -13.221 19.599000000000004 -12.07 19.863000000000003 C -9.635 20.421000000000003 -7.347 20.084000000000003 -5.224 18.784000000000002 C -4.412 18.286 -3.6180000000000003 17.730000000000004 -2.918 17.090000000000003 C -1.6780000000000002 15.955000000000004 -0.8300000000000001 14.558000000000003 -0.69 12.840000000000003 C -0.6439999999999999 12.252000000000004 -0.697 11.630000000000003 -0.842 11.058000000000003 M -2.411 -2.05 C -1.4020000000000001 0.18100000000000005 -1.594 2.5390000000000006 -1.6520000000000001 4.989 C -0.552 2.3449999999999998 -0.7420000000000001 -0.29100000000000037 -2.411 -2.05 M -3.843 -1.666 C -3.672 -0.3619999999999999 -3.506 0.899 -3.347 2.113 C -2.7889999999999997 1.255 -2.9939999999999998 -0.4849999999999999 -3.843 -1.666 M -10.134 3.331 C -12.063 3.899 -14.015 6.043 -14.23 7.62 C -11.475 3.715 -6.406 3.031 -3.168 4.5 C -5.246 2.732 -7.645 2.599 -10.134 3.331 M -5.511 -0.2560000000000002 C -5.532 0.05499999999999977 -5.555 0.36499999999999977 -5.575 0.6749999999999998 C -5.523000000000001 0.6939999999999998 -5.472 0.7149999999999999 -5.4190000000000005 0.7339999999999998 C -5.409000000000001 0.40599999999999975 -5.398000000000001 0.07799999999999974 -5.3870000000000005 -0.24900000000000022 C -5.429 -0.2500000000000002 -5.470000000000001 -0.2530000000000002 -5.511 -0.2560000000000002 M -14.709 4.0489999999999995 C -14.837 1.9809999999999994 -16.663 1.1309999999999993 -18.437 2.0019999999999993 C -19.037000000000003 2.2959999999999994 -19.545 2.7759999999999994 -20.116 3.1869999999999994 C -20.374 2.8929999999999993 -20.66 2.5669999999999993 -20.942999999999998 2.2409999999999997 C -22.209999999999997 0.7849999999999997 -24.613 1.4829999999999997 -25.360999999999997 2.8589999999999995 C -25.918999999999997 3.8839999999999995 -25.877999999999997 4.8999999999999995 -25.513999999999996 5.943 C -25.336999999999996 6.455 -25.132999999999996 6.97 -24.868999999999996 7.443999999999999 C -23.979999999999997 9.040999999999999 -23.086999999999996 10.637999999999998 -22.145999999999997 12.204999999999998 C -20.767999999999997 14.503999999999998 -18.773999999999997 13.883 -17.720999999999997 12.385999999999997 C -17.058999999999997 11.444999999999997 -16.464999999999996 10.474999999999998 -16.091999999999995 9.372999999999998 C -15.829999999999995 8.599999999999998 -15.496999999999995 7.8489999999999975 -15.185999999999995 7.089999999999998 C -14.783999999999995 6.114999999999998 -14.643999999999995 5.108999999999998 -14.708999999999994 4.048999999999998 M -27.487999999999992 8.708999999999998 C -28.651999999999994 7.349999999999998 -30.150999999999993 6.557999999999998 -31.86499999999999 6.138999999999998 C -32.849999999999994 5.897999999999998 -33.81799999999999 6.028999999999997 -34.75599999999999 6.380999999999998 C -35.879999999999995 6.798999999999998 -36.827999999999996 7.493999999999998 -37.614999999999995 8.379999999999997 C -38.513 9.392999999999997 -38.651999999999994 10.658999999999997 -38.498 11.929999999999996 C -38.321999999999996 13.370999999999997 -37.887 14.747999999999996 -37.195 16.041999999999994 C -36.378 17.570999999999994 -35.073 18.524999999999995 -33.537 19.174999999999994 C -31.596999999999998 19.996999999999993 -29.561999999999998 20.316999999999993 -27.317999999999998 20.093999999999994 C -25.288999999999998 19.937999999999995 -24.270999999999997 18.591999999999995 -23.878999999999998 17.130999999999993 C -23.755999999999997 16.671999999999993 -23.726 16.145999999999994 -23.811999999999998 15.682999999999993 C -24.201999999999998 13.591999999999992 -24.895999999999997 11.623999999999992 -26.365999999999996 10.011999999999993 C -26.752999999999997 9.588999999999993 -27.115999999999996 9.144999999999992 -27.487999999999996 8.708999999999993 M -27.798999999999996 5.265999999999993 C -29.169999999999995 4.040999999999993 -30.747999999999998 3.373999999999993 -32.623 3.3639999999999928 C -34.336 3.353999999999993 -35.912 3.7359999999999927 -37.388 4.586999999999993 C -38.547 5.257999999999993 -39.428999999999995 6.193999999999993 -40.012 7.4349999999999925 C -39.913000000000004 7.353999999999992 -39.808 7.2779999999999925 -39.717 7.189999999999992 C -37.829 5.389999999999993 -35.535 4.633999999999992 -32.972 4.471999999999992 C -31.41 4.371999999999993 -29.926000000000002 4.539999999999992 -28.542 5.296999999999993 C -28.091 5.5439999999999925 -27.666 5.835999999999992 -27.149 6.060999999999993 C -27.364 5.794999999999993 -27.547 5.489999999999993 -27.799 5.265999999999993 M -38.65 2.013 C -38.396 1.367 -38.143 0.724 -37.888999999999996 0.07699999999999996 C -38.51199999999999 0.569 -38.687 1.248 -38.65 2.013 M -40.423 3.235 C -40.014 1.9529999999999998 -39.605000000000004 0.6719999999999997 -39.196000000000005 -0.6100000000000003 C -40.159000000000006 0.4939999999999998 -40.62500000000001 1.759 -40.423 3.235 M -41.274 -0.06899999999999995 C -41.935 1.311 -42.218 2.743 -41.811 4.4270000000000005 C -41.562 2.8460000000000005 -41.334 1.4140000000000006 -41.108 -0.01899999999999924 C -41.163 -0.03499999999999924 -41.218999999999994 -0.05299999999999924 -41.273999999999994 -0.06899999999999924 M -43.147999999999996 5.422000000000001 C -42.99999999999999 3.7770000000000006 -42.977999999999994 2.1180000000000008 -42.623 0.47300000000000075 C -43.653999999999996 2.011000000000001 -43.644999999999996 3.690000000000001 -43.147999999999996 5.422000000000001 M -21.304999999999996 19.222 C -22.494999999999997 20.341 -24.002999999999997 20.886000000000003 -25.432999999999996 21.566000000000003 C -23.685999999999996 21.433000000000003 -22.173999999999996 20.880000000000003 -21.304999999999996 19.222 M -17.408999999999995 14.836000000000002 C -19.472999999999995 16.106 -21.166999999999994 15.585000000000003 -22.667999999999996 13.875000000000002 C -22.147999999999996 14.961000000000002 -21.497999999999998 15.942000000000002 -20.242999999999995 16.083000000000002 C -19.125999999999994 16.206000000000003 -18.079999999999995 15.880000000000003 -17.408999999999995 14.836000000000002 M -11.335999999999995 22.476000000000003 C -12.541999999999994 22.259000000000004 -13.736999999999995 21.999000000000002 -14.742999999999995 21.256000000000004 C -15.751999999999995 20.513000000000005 -16.404999999999994 19.486000000000004 -16.965999999999994 18.174000000000003 C -16.767999999999994 21.172000000000004 -14.463999999999995 23.130000000000003 -11.335999999999995 22.476000000000003 M -7.801999999999995 23.291000000000004 C -7.606999999999995 22.744000000000003 -7.413999999999995 22.197000000000003 -7.218999999999995 21.649000000000004 C -7.695999999999995 22.094000000000005 -7.870999999999995 22.648000000000003 -7.801999999999995 23.291000000000004 M -6.585999999999995 23.565000000000005 C -6.292999999999995 22.647000000000006 -5.997999999999995 21.729000000000006 -5.701999999999995 20.811000000000003 C -6.454999999999995 21.562000000000005 -6.640999999999995 22.516000000000005 -6.776999999999995 23.487000000000002 C -6.713999999999995 23.513 -6.649999999999995 23.540000000000003 -6.585999999999995 23.565 M -5.191999999999995 23.921000000000003 C -4.733999999999995 22.624000000000002 -4.277999999999995 21.327 -3.820999999999995 20.028000000000002 C -3.872999999999995 20.01 -3.924999999999995 19.991000000000003 -3.977999999999995 19.973000000000003 C -4.793999999999995 21.134000000000004 -5.126999999999995 22.476000000000003 -5.376999999999995 23.846000000000004 C -5.314999999999995 23.872000000000003 -5.253999999999995 23.897000000000002 -5.191999999999996 23.921000000000003 M -3.851999999999996 24.923000000000002 C -3.1809999999999956 22.801000000000002 -2.564999999999996 20.859 -1.945999999999996 18.898000000000003 C -2.995999999999996 19.750000000000004 -4.004999999999996 22.828000000000003 -3.851999999999996 24.923000000000002 M 1.979 2.127 C 2.021 4.131 1.449 5.961 0.529 7.715 C 2.011 6.77 2.864 3.881 1.979 2.127 M 3.522 4.289 C 2.932 6.15 2.292 7.987 1.085 9.648 C 2.734 8.733 3.715 6.329 3.522 4.289 M 3.78 7.525 C 3.067 8.751 2.354 9.977 1.639 11.204 C 2.937 10.343 3.447 9.006 3.78 7.525 M -44.214 2.054 C -45.012 3.383 -44.896 5.97 -44.119 6.891 C -44.149 5.3100000000000005 -44.183 3.666 -44.214 2.0540000000000003 M -44.373999999999995 8.833 C -44.812 7.23 -45.48799999999999 5.674 -45.464999999999996 3.957 C -46.13099999999999 5.802 -45.425 7.352 -44.373999999999995 8.833 M 4.519 4.803 C 5.079 7.276 4.455 9.525 3.136 11.6 C 2.164 13.125 1.323 14.708 0.58 16.356 C -0.584 18.937 -1.475 21.590000000000003 -1.6989999999999998 24.433 C -1.7409999999999999 24.962 -1.7349999999999999 25.497 -1.753 26.042 C -7.8180000000000005 25.309 -13.825 24.591 -19.829 23.853 C -25.830000000000002 23.114 -31.814 22.219 -37.871 21.922 C -37.928000000000004 21.617 -37.971000000000004 21.404 -38.005 21.191 C -38.354 19.084 -39.065000000000005 17.121 -40.417 15.442 C -41.494 14.101 -42.582 12.766 -43.72 11.475999999999999 C -44.75 10.308 -45.492 8.995999999999999 -46.012 7.539999999999999 C -47.046 4.648 -46.075 1.626999999999999 -43.571 -0.1460000000000008 C -42.592999999999996 -0.8400000000000007 -41.492999999999995 -1.252000000000001 -40.363 -1.5470000000000008 C -39.377 -1.8050000000000008 -38.348 -1.7830000000000008 -37.403999999999996 -1.3040000000000007 C -34.44199999999999 0.20499999999999918 -31.313999999999997 1.0759999999999992 -27.983999999999995 1.1829999999999994 C -26.027999999999995 1.2429999999999994 -24.184999999999995 0.8439999999999994 -22.542999999999996 -0.2750000000000006 C -21.686999999999994 -0.8570000000000005 -20.843999999999994 -1.4560000000000006 -19.807999999999996 -2.178000000000001 C -19.670999999999996 -2.0340000000000007 -19.526999999999997 -1.818000000000001 -19.327999999999996 -1.6830000000000007 C -18.564999999999994 -1.1590000000000007 -17.825999999999997 -0.5790000000000006 -17.003999999999998 -0.17000000000000082 C -14.874999999999998 0.8889999999999991 -12.629999999999999 1.2709999999999992 -10.346999999999998 0.40599999999999914 C -9.285999999999998 0.004999999999999116 -8.290999999999997 -0.5940000000000009 -7.306999999999998 -1.1710000000000007 C -6.248999999999998 -1.7920000000000007 -5.2319999999999975 -2.4860000000000007 -4.209999999999997 -3.1640000000000006 C -3.755999999999997 -3.4650000000000007 -3.3299999999999974 -3.5020000000000007 -2.8309999999999973 -3.2520000000000007 C -1.3809999999999973 -2.5300000000000007 -0.011999999999997346 -1.6870000000000007 1.2170000000000027 -0.6300000000000008 C 2.9040000000000026 0.8189999999999993 4.026000000000003 2.619999999999999 4.519000000000003 4.802999999999999" stroke-linecap="round" />
</g>
		<g transform="matrix(1.5810133449604729 0 0 -1.5810133449604729 -0.10627183280632835 -20.43672310994171)"  >
<path style="stroke: none; stroke-width: 1; stroke-dasharray: none; stroke-linecap: butt; stroke-dashoffset: 0; stroke-linejoin: miter; stroke-miterlimit: 4; fill: rgb(48,147,68); fill-rule: evenodd; opacity: 1;"  paint-order="stroke"  transform=" translate(10.650500000000001, -2.417498842178806)" d="M 0 0 C 1.633 0.936 24.175 5.598 26.735 5.466 C 17.927 2.502 9.135 0.28 0 0 M 23.326 6.551 C 16.262 4.205 9.074 2.491 1.581 2.325 C 8.717 4.305 15.911 5.996 23.326 6.551 M 17.969 7.012 C 15.804 6.481 13.664 5.804 11.47 5.457 C 9.029 5.07 6.542 4.986 4.07 4.821 C 5.41 5.764 15.077 7.305 17.969 7.012 M -46.324 -4.676 C -39.077999999999996 -3.614 -31.807 -2.8680000000000003 -24.461 -3.076 C -31.666999999999998 -4.683 -38.937 -5.447 -46.324 -4.676 M -24.897 -0.617 C -27.233999999999998 -1.788 -39.924 -3.411 -43.260999999999996 -2.953 C -37.276999999999994 -1.4069999999999998 -31.186999999999998 -0.665 -24.896999999999995 -0.617 M -36.37199999999999 0.265 C -33.239999999999995 0.889 -30.083999999999993 1.3650000000000002 -26.894999999999992 1.5750000000000002 C -26.814999999999994 1.5810000000000002 -26.73399999999999 1.5550000000000002 -26.639999999999993 1.4980000000000002 C -27.904999999999994 1.0010000000000003 -29.214999999999993 0.6350000000000002 -30.539999999999992 0.3560000000000003 C -31.897999999999993 0.07300000000000034 -33.27599999999999 -0.14599999999999969 -34.65599999999999 -0.2969999999999997 C -36.03399999999999 -0.44999999999999973 -37.42399999999999 -0.4819999999999997 -38.99499999999999 -0.5799999999999996 C -38.07799999999999 -0.08299999999999963 -37.22399999999999 0.09500000000000042 -36.37199999999999 0.26500000000000035 M 14.119 10.91 C 13.927 10.119 13.744 9.445 13.602 8.763 C 13.475 8.159 13.095 7.907 12.514 7.841 C 11.458 7.724 10.401 7.603 9.352 7.455 C 6.407 7.039 3.465 6.622 0.525 6.175 C -0.718 5.987 -0.712 5.952 -0.977 4.718 C -1.145 3.937 -1.4 3.706 -2.195 3.672 C -3.667 3.613 -5.143 3.606 -6.611 3.503 C -9.468 3.306 -12.32 3.042 -15.176 2.833 C -16.808 2.7140000000000004 -18.444 2.644 -20.079 2.568 C -21.414 2.5020000000000002 -21.776 2.732 -22.268 3.891 C -22.286 3.935 -22.35 3.958 -22.418 4.0120000000000005 C -22.718999999999998 3.9700000000000006 -23.044 3.9350000000000005 -23.364 3.8800000000000003 C -27.644000000000002 3.144 -31.852 2.0840000000000005 -36.059 1.0310000000000001 C -37.277 0.7260000000000002 -37.771 1.0110000000000001 -37.939 2.2620000000000005 C -38.075 2.2400000000000007 -38.156 2.2360000000000007 -38.232 2.2100000000000004 C -40.374 1.4780000000000004 -42.513999999999996 0.7320000000000004 -44.66 0.011000000000000565 C -45.721 -0.3459999999999994 -46.794999999999995 -0.6639999999999995 -47.864999999999995 -0.9919999999999993 C -51.49099999999999 -2.1059999999999994 -55.117999999999995 -3.2159999999999993 -58.742999999999995 -4.332999999999999 C -58.95399999999999 -4.396999999999999 -59.147 -4.515 -59.461999999999996 -4.656 C -58.464 -4.787999999999999 -57.626999999999995 -4.896 -56.788999999999994 -5.008 C -55.32699999999999 -5.203 -53.87 -5.444 -52.400999999999996 -5.586 C -50.989999999999995 -5.726 -49.568 -5.766 -48.148999999999994 -5.846 C -46.648999999999994 -5.929 -45.148999999999994 -6.075 -43.647999999999996 -6.075 C -39.388999999999996 -6.0760000000000005 -35.145999999999994 -5.753 -30.905999999999995 -5.331 C -27.540999999999997 -4.998 -24.164999999999996 -4.767 -20.801999999999996 -4.405 C -16.570999999999998 -3.9520000000000004 -12.347999999999995 -3.43 -8.124999999999996 -2.9040000000000004 C -4.443999999999996 -2.4480000000000004 -0.7689999999999966 -1.9420000000000004 2.9100000000000037 -1.4670000000000003 C 8.081000000000003 -0.7980000000000003 13.237000000000004 -0.028000000000000247 18.311000000000003 1.1749999999999996 C 22.742000000000004 2.2269999999999994 27.131000000000004 3.462999999999999 31.536 4.624 C 33.658 5.185 35.659 6.058 37.65 6.959 C 37.802 7.026999999999999 37.93 7.148 38.161 7.31 C 30.058 8.61 22.062 9.73 14.119 10.91" stroke-linecap="round" />
</g>
</g>
</g>
</svg>